<svg width="14" height="14" viewBox="0 0 14 14" fill="none" xmlns="http://www.w3.org/2000/svg">
<g clip-path="url(#clip0_23_345)">
<path fill-rule="evenodd" clip-rule="evenodd" d="M12.5685 2.98133C12.7325 3.14542 12.8247 3.36794 12.8247 3.59996C12.8247 3.83198 12.7325 4.0545 12.5685 4.21858L6.01008 10.777C5.92341 10.8637 5.82051 10.9325 5.70726 10.9794C5.59401 11.0263 5.47262 11.0504 5.35004 11.0504C5.22745 11.0504 5.10607 11.0263 4.99282 10.9794C4.87957 10.9325 4.77667 10.8637 4.69 10.777L1.43149 7.51908C1.34792 7.43837 1.28126 7.34182 1.23541 7.23506C1.18955 7.12831 1.16541 7.01349 1.1644 6.89731C1.16339 6.78113 1.18553 6.66591 1.22953 6.55837C1.27352 6.45084 1.33849 6.35314 1.42065 6.27099C1.50281 6.18883 1.6005 6.12386 1.70804 6.07986C1.81557 6.03587 1.93079 6.01373 2.04697 6.01474C2.16315 6.01575 2.27797 6.03989 2.38472 6.08574C2.49148 6.1316 2.58803 6.19826 2.66874 6.28183L5.34974 8.96283L11.3307 2.98133C11.4119 2.90002 11.5084 2.83552 11.6146 2.79151C11.7208 2.7475 11.8346 2.72485 11.9496 2.72485C12.0645 2.72485 12.1784 2.7475 12.2846 2.79151C12.3908 2.83552 12.4872 2.90002 12.5685 2.98133Z" fill="#959ADC"/>
</g>
<defs>
<clipPath id="clip0_23_345">
<rect width="14" height="14" fill="white"/>
</clipPath>
</defs>
</svg>
