<svg width="266" height="170" viewBox="0 0 266 170" fill="none" xmlns="http://www.w3.org/2000/svg">
<path d="M166.105 107.616C168.175 100.266 169.275 92.4958 169.265 84.4758C169.185 39.1658 132.745 1.51582 87.4546 0.0458202C38.4946 -1.54418 -1.52533 38.4558 0.044672 87.4158C1.50467 133.006 39.5947 169.576 85.2147 169.276C101.325 169.166 116.375 164.556 129.155 156.646C135.605 165.146 146.225 170.316 157.965 169.106C172.875 167.576 184.895 155.466 186.335 140.556C187.775 125.666 178.965 112.606 166.125 107.626L166.105 107.616ZM87.9947 110.306C71.0647 112.436 56.8347 98.2059 58.9647 81.2759C60.4147 69.7459 69.7347 60.4258 81.2647 58.9758C98.1947 56.8458 112.425 71.0758 110.295 88.0058C108.845 99.5358 99.5247 108.856 87.9947 110.306Z" fill="white"/>
<path d="M234.125 169.276C251.196 169.276 265.035 155.688 265.035 138.926C265.035 122.164 251.196 108.576 234.125 108.576C217.054 108.576 203.215 122.164 203.215 138.926C203.215 155.688 217.054 169.276 234.125 169.276Z" fill="white"/>
</svg>
