<svg width="250" height="39" viewBox="0 0 250 39" fill="none" xmlns="http://www.w3.org/2000/svg">
<rect width="250" height="39" rx="19.5" fill="white"/>
<path d="M71.6914 28V11.0898H77.8672C82.9062 11.0898 85.9062 14.1367 85.9062 19.4805V19.5039C85.9062 24.8594 82.9297 28 77.8672 28H71.6914ZM74.7148 25.4453H77.5508C80.9492 25.4453 82.8242 23.3711 82.8242 19.5156V19.4922C82.8242 15.7188 80.9141 13.6445 77.5508 13.6445H74.7148V25.4453ZM93.4766 28.2461C89.75 28.2461 87.5 25.7734 87.5 21.8242V21.8125C87.5 17.8984 89.7852 15.3203 93.3359 15.3203C96.8867 15.3203 99.0898 17.8164 99.0898 21.5664V22.5039H90.3945C90.4414 24.6836 91.6367 25.9727 93.5352 25.9727C94.9883 25.9727 95.9375 25.1992 96.2188 24.3672L96.2422 24.2852H98.9727L98.9375 24.4141C98.5508 26.3242 96.7227 28.2461 93.4766 28.2461ZM93.3711 17.6055C91.8242 17.6055 90.6641 18.6484 90.4297 20.5586H96.2539C96.043 18.5898 94.918 17.6055 93.3711 17.6055ZM105.828 28.2461C102.57 28.2461 100.707 26.6992 100.449 24.3906L100.438 24.2852H103.309L103.332 24.3906C103.555 25.457 104.363 26.0898 105.84 26.0898C107.258 26.0898 108.113 25.5156 108.113 24.6016V24.5898C108.113 23.8398 107.68 23.418 106.391 23.125L104.328 22.668C101.949 22.1406 100.754 20.9805 100.754 19.1406V19.1289C100.754 16.8555 102.734 15.3203 105.734 15.3203C108.828 15.3203 110.633 17.0195 110.738 19.1641L110.75 19.293H108.031L108.02 19.1992C107.891 18.2031 107.094 17.4766 105.734 17.4766C104.445 17.4766 103.637 18.0742 103.637 18.9883V19C103.637 19.7148 104.117 20.1836 105.406 20.4766L107.48 20.9336C110.047 21.5078 111.043 22.5156 111.043 24.3203V24.332C111.043 26.6758 108.875 28.2461 105.828 28.2461ZM118.391 28.2461C114.699 28.2461 112.391 25.7617 112.391 21.7773V21.7656C112.391 17.8047 114.734 15.3203 118.355 15.3203C121.625 15.3203 123.664 17.3945 123.84 19.8789L123.852 19.9727H121.098L121.074 19.8672C120.828 18.6602 119.938 17.6875 118.391 17.6875C116.551 17.6875 115.367 19.2461 115.367 21.7891V21.8008C115.367 24.3906 116.562 25.8906 118.402 25.8906C119.879 25.8906 120.816 25.0117 121.086 23.7109L121.109 23.6055H123.863L123.852 23.6875C123.629 26.2773 121.531 28.2461 118.391 28.2461ZM129.277 28.2109C126.793 28.2109 125.117 26.6758 125.117 24.4609V24.4375C125.117 22.2344 126.828 20.9102 129.84 20.7227L133.086 20.5234V19.668C133.086 18.4141 132.266 17.6523 130.789 17.6523C129.406 17.6523 128.562 18.2969 128.375 19.2109L128.352 19.3164H125.645L125.656 19.1758C125.832 16.9727 127.742 15.3203 130.895 15.3203C134 15.3203 136.004 16.9609 136.004 19.457V28H133.086V26.0898H133.016C132.301 27.3906 130.918 28.2109 129.277 28.2109ZM128.023 24.3438C128.023 25.3633 128.867 25.9844 130.145 25.9844C131.82 25.9844 133.086 24.8711 133.086 23.3945V22.457L130.25 22.6328C128.809 22.7266 128.023 23.3477 128.023 24.332V24.3438ZM138.359 28V15.5781H141.277V17.7227H141.336C141.723 16.2227 142.754 15.3203 144.184 15.3203C144.547 15.3203 144.887 15.3789 145.109 15.4375V18.0742C144.863 17.9805 144.418 17.9102 143.926 17.9102C142.273 17.9102 141.277 18.9531 141.277 20.793V28H138.359ZM151.742 32.3477C148.449 32.3477 146.375 30.8477 146.023 28.9023L146 28.7969H148.871L148.906 28.8906C149.223 29.6055 150.219 30.1445 151.742 30.1445C153.641 30.1445 154.684 29.1367 154.684 27.5547V25.7617H154.625C153.934 27.0859 152.527 27.9297 150.746 27.9297C147.629 27.9297 145.625 25.5391 145.625 21.6719V21.6602C145.625 17.7344 147.652 15.3203 150.793 15.3203C152.551 15.3203 153.91 16.2578 154.613 17.6875H154.684V15.5781H157.602V27.6484C157.602 30.4609 155.34 32.3477 151.742 32.3477ZM151.66 25.6797C153.477 25.6797 154.695 24.1445 154.695 21.7305V21.7188C154.695 19.3164 153.465 17.7812 151.66 17.7812C149.785 17.7812 148.602 19.293 148.602 21.707V21.7188C148.602 24.168 149.785 25.6797 151.66 25.6797ZM163.66 28.2109C161.176 28.2109 159.5 26.6758 159.5 24.4609V24.4375C159.5 22.2344 161.211 20.9102 164.223 20.7227L167.469 20.5234V19.668C167.469 18.4141 166.648 17.6523 165.172 17.6523C163.789 17.6523 162.945 18.2969 162.758 19.2109L162.734 19.3164H160.027L160.039 19.1758C160.215 16.9727 162.125 15.3203 165.277 15.3203C168.383 15.3203 170.387 16.9609 170.387 19.457V28H167.469V26.0898H167.398C166.684 27.3906 165.301 28.2109 163.66 28.2109ZM162.406 24.3438C162.406 25.3633 163.25 25.9844 164.527 25.9844C166.203 25.9844 167.469 24.8711 167.469 23.3945V22.457L164.633 22.6328C163.191 22.7266 162.406 23.3477 162.406 24.332V24.3438ZM172.742 28V15.5781H175.66V17.7227H175.719C176.105 16.2227 177.137 15.3203 178.566 15.3203C178.93 15.3203 179.27 15.3789 179.492 15.4375V18.0742C179.246 17.9805 178.801 17.9102 178.309 17.9102C176.656 17.9102 175.66 18.9531 175.66 20.793V28H172.742Z" fill="#20193F"/>
</svg>
