<svg width="372" height="59" viewBox="0 0 372 59" fill="none" xmlns="http://www.w3.org/2000/svg">
<rect width="372" height="59" rx="29.5" fill="#C3F123"/>
<path d="M132.691 38V21.0898H138.867C143.906 21.0898 146.906 24.1367 146.906 29.4805V29.5039C146.906 34.8594 143.93 38 138.867 38H132.691ZM135.715 35.4453H138.551C141.949 35.4453 143.824 33.3711 143.824 29.5156V29.4922C143.824 25.7188 141.914 23.6445 138.551 23.6445H135.715V35.4453ZM154.477 38.2461C150.75 38.2461 148.5 35.7734 148.5 31.8242V31.8125C148.5 27.8984 150.785 25.3203 154.336 25.3203C157.887 25.3203 160.09 27.8164 160.09 31.5664V32.5039H151.395C151.441 34.6836 152.637 35.9727 154.535 35.9727C155.988 35.9727 156.938 35.1992 157.219 34.3672L157.242 34.2852H159.973L159.938 34.4141C159.551 36.3242 157.723 38.2461 154.477 38.2461ZM154.371 27.6055C152.824 27.6055 151.664 28.6484 151.43 30.5586H157.254C157.043 28.5898 155.918 27.6055 154.371 27.6055ZM166.828 38.2461C163.57 38.2461 161.707 36.6992 161.449 34.3906L161.438 34.2852H164.309L164.332 34.3906C164.555 35.457 165.363 36.0898 166.84 36.0898C168.258 36.0898 169.113 35.5156 169.113 34.6016V34.5898C169.113 33.8398 168.68 33.418 167.391 33.125L165.328 32.668C162.949 32.1406 161.754 30.9805 161.754 29.1406V29.1289C161.754 26.8555 163.734 25.3203 166.734 25.3203C169.828 25.3203 171.633 27.0195 171.738 29.1641L171.75 29.293H169.031L169.02 29.1992C168.891 28.2031 168.094 27.4766 166.734 27.4766C165.445 27.4766 164.637 28.0742 164.637 28.9883V29C164.637 29.7148 165.117 30.1836 166.406 30.4766L168.48 30.9336C171.047 31.5078 172.043 32.5156 172.043 34.3203V34.332C172.043 36.6758 169.875 38.2461 166.828 38.2461ZM179.391 38.2461C175.699 38.2461 173.391 35.7617 173.391 31.7773V31.7656C173.391 27.8047 175.734 25.3203 179.355 25.3203C182.625 25.3203 184.664 27.3945 184.84 29.8789L184.852 29.9727H182.098L182.074 29.8672C181.828 28.6602 180.938 27.6875 179.391 27.6875C177.551 27.6875 176.367 29.2461 176.367 31.7891V31.8008C176.367 34.3906 177.562 35.8906 179.402 35.8906C180.879 35.8906 181.816 35.0117 182.086 33.7109L182.109 33.6055H184.863L184.852 33.6875C184.629 36.2773 182.531 38.2461 179.391 38.2461ZM190.277 38.2109C187.793 38.2109 186.117 36.6758 186.117 34.4609V34.4375C186.117 32.2344 187.828 30.9102 190.84 30.7227L194.086 30.5234V29.668C194.086 28.4141 193.266 27.6523 191.789 27.6523C190.406 27.6523 189.562 28.2969 189.375 29.2109L189.352 29.3164H186.645L186.656 29.1758C186.832 26.9727 188.742 25.3203 191.895 25.3203C195 25.3203 197.004 26.9609 197.004 29.457V38H194.086V36.0898H194.016C193.301 37.3906 191.918 38.2109 190.277 38.2109ZM189.023 34.3438C189.023 35.3633 189.867 35.9844 191.145 35.9844C192.82 35.9844 194.086 34.8711 194.086 33.3945V32.457L191.25 32.6328C189.809 32.7266 189.023 33.3477 189.023 34.332V34.3438ZM199.359 38V25.5781H202.277V27.7227H202.336C202.723 26.2227 203.754 25.3203 205.184 25.3203C205.547 25.3203 205.887 25.3789 206.109 25.4375V28.0742C205.863 27.9805 205.418 27.9102 204.926 27.9102C203.273 27.9102 202.277 28.9531 202.277 30.793V38H199.359ZM212.742 42.3477C209.449 42.3477 207.375 40.8477 207.023 38.9023L207 38.7969H209.871L209.906 38.8906C210.223 39.6055 211.219 40.1445 212.742 40.1445C214.641 40.1445 215.684 39.1367 215.684 37.5547V35.7617H215.625C214.934 37.0859 213.527 37.9297 211.746 37.9297C208.629 37.9297 206.625 35.5391 206.625 31.6719V31.6602C206.625 27.7344 208.652 25.3203 211.793 25.3203C213.551 25.3203 214.91 26.2578 215.613 27.6875H215.684V25.5781H218.602V37.6484C218.602 40.4609 216.34 42.3477 212.742 42.3477ZM212.66 35.6797C214.477 35.6797 215.695 34.1445 215.695 31.7305V31.7188C215.695 29.3164 214.465 27.7812 212.66 27.7812C210.785 27.7812 209.602 29.293 209.602 31.707V31.7188C209.602 34.168 210.785 35.6797 212.66 35.6797ZM224.66 38.2109C222.176 38.2109 220.5 36.6758 220.5 34.4609V34.4375C220.5 32.2344 222.211 30.9102 225.223 30.7227L228.469 30.5234V29.668C228.469 28.4141 227.648 27.6523 226.172 27.6523C224.789 27.6523 223.945 28.2969 223.758 29.2109L223.734 29.3164H221.027L221.039 29.1758C221.215 26.9727 223.125 25.3203 226.277 25.3203C229.383 25.3203 231.387 26.9609 231.387 29.457V38H228.469V36.0898H228.398C227.684 37.3906 226.301 38.2109 224.66 38.2109ZM223.406 34.3438C223.406 35.3633 224.25 35.9844 225.527 35.9844C227.203 35.9844 228.469 34.8711 228.469 33.3945V32.457L225.633 32.6328C224.191 32.7266 223.406 33.3477 223.406 34.332V34.3438ZM233.742 38V25.5781H236.66V27.7227H236.719C237.105 26.2227 238.137 25.3203 239.566 25.3203C239.93 25.3203 240.27 25.3789 240.492 25.4375V28.0742C240.246 27.9805 239.801 27.9102 239.309 27.9102C237.656 27.9102 236.66 28.9531 236.66 30.793V38H233.742Z" fill="#20193F"/>
</svg>
