<svg width="1366" height="735" viewBox="0 0 1366 735" fill="none" xmlns="http://www.w3.org/2000/svg">
<g clip-path="url(#clip0_23_303)">
<path d="M561.667 685.852C568.568 682.689 576.405 684.433 583.719 684.703C593.172 685.757 602.578 686.597 611.762 689.166C626.033 692.25 649.615 696.761 645.011 716.24C640.399 726.824 629.448 731.136 617.467 732.135C603.814 732.326 588.759 736.519 582.879 749.442C578.719 756.934 578.164 766.32 584.82 772.655C595.637 786.473 615.439 784.031 628.886 775.66C644.131 764.886 658.616 752.026 678.165 762.182C698.719 773.353 708.157 797.842 705.772 820.214C703.014 868.995 722.024 854.313 664.329 856.635C657.214 857.27 659.393 850.142 660.138 845.402C661.54 837.022 666.326 827.984 663.283 819.533C656.144 802.02 634.622 798.389 618.283 805.001C605.835 809.892 595.676 824.012 599.179 837.823C600.423 843.372 604.345 849.627 602.546 855.01C601.627 856.524 599.607 856.612 597.919 856.635C584.987 856.635 572.039 856.635 559.107 856.635C556.548 856.731 553.917 856.025 553.806 853.076C553.584 847.193 553.885 841.239 554.392 835.365C555.082 822.125 563.291 807.324 557.388 794.504C545.335 774.788 517.958 779.766 498.243 777.087C478.687 776.04 459.043 767.684 451.064 749.466C447.403 741.633 446.825 732.437 439.21 726.998C419.392 714.234 393.972 713.497 372.878 723.129C363.195 728.425 361.333 742.886 369.875 749.823C380.216 757.108 393.869 756.799 404.78 762.531C415.073 768.889 412.49 784.198 402.664 789.827C397.506 793.688 390.881 794.298 384.764 795.741C363.821 799.198 340.358 803.542 320.469 793.49C310.731 788.455 305.271 777.459 310.707 767.43C317.07 756.411 329.582 748.451 332.751 735.505C339.471 710.881 304.764 692.979 322.862 668.379C326.927 661.949 333.821 657.668 339.637 652.737C373.615 613.716 297.656 601.459 291.158 640.758C287.886 661.624 274.336 679.779 250.913 672.612C228.765 664.764 237.989 642.772 246.665 627.709C255.287 613.629 265.398 597.147 282.727 592.913C292.973 590.043 305.295 590.559 314.114 584.073C320.897 579.903 325.477 570.85 319.574 564.008C313.797 556.508 302.252 555.581 293.639 553.345C282.188 550.602 271.008 547.399 259.859 543.903C238.512 536.498 215.722 533.065 192.751 534.389C175.492 533.866 158.614 529.64 142.148 524.717C115.635 517.844 87.7105 522.854 60.5947 521.673C38.2729 522.394 -7.93169 514.197 -7.30569 547.47C-4.2312 567.901 20.9353 577.2 39.5883 577.565C67.9878 576.161 90.2304 553.733 119.129 553.94C128.725 554.788 143.432 561.947 143.297 572.538C140.983 586.238 129.43 597.091 117.291 602.847C99.652 611.369 78.0116 605.249 59.7469 610.545C54.4141 611.877 49.2635 613.724 44.3269 616.118C36.1097 619.932 29.1921 626.75 19.7388 627.447C6.36314 629.421 -2.7098 618.687 -7.48002 607.532C-11.6876 600.025 -16.8461 593.016 -22.7337 586.737C-28.3676 580.189 -35.3328 574.576 -42.6149 569.336C-44.0253 567.909 -44.5721 566.006 -44.5879 564.016C-44.6434 548.945 -44.6593 533.842 -44.691 518.763C-45.1664 512.58 -38.9699 510.28 -34.6671 507.339C-9.33423 490.699 20.8402 483.595 51.9022 484.253C75.0401 484.451 98.0672 479.06 121.158 480.717C148.25 484.118 171.657 504.636 199.565 501.227C220.271 498.317 221.887 473.249 233.551 459.883C239.447 452.24 248.012 447.269 254.478 440.11C264.098 430.01 266.919 415.954 258.543 404.982C246.277 389.261 218.931 392.67 207.973 408.859C200.54 417.801 201.618 429.535 198.606 440.15C195.746 448.181 189.058 454.42 181.3 457.774C170.112 462.982 155.912 459.526 146.982 451.233C134.787 441.902 141.609 427.743 147.449 416.898C155.421 400.534 168.852 386.549 184.977 375.847C198.123 368.529 212.172 363.551 227.996 363.979C234.653 364.383 241.435 364.121 247.783 362.187C254.193 360.268 261.23 357.454 266.515 352.927C276.214 345.197 274.764 329.889 263.892 323.855C233.068 307.468 190.405 315.896 165.69 339.386C156.815 348.234 148.836 357.28 137.449 363.947C127.497 369.869 116.902 373.548 107.108 379.914C92.7185 388.833 93.1781 405.101 99.9689 418.713C101.625 422.637 103.772 426.887 103.685 431.017C100.127 454.024 70.2303 455.728 53.1066 443.829C40.46 435.441 26.4662 421.456 33.3918 405.553C36.8387 398.655 44.6676 395.532 49.6359 390.133C57.4331 382.831 64.0734 370.345 54.4299 361.727C49.311 356.59 40.1192 355.971 33.1224 356.812C14.6278 358.326 -3.90631 358.675 -22.3612 360.681C-28.0348 361.402 -33.6608 362.552 -39.0491 364.431C-40.7052 364.875 -42.8209 365.755 -44.0333 364.224C-46.0143 317.315 -44.2393 269.502 -44.6196 222.323C-44.5483 220.959 -44.3819 220.039 -44.065 220.016C-43.6608 219.881 -43.0032 221.649 -42.6545 222.513C-33.6766 246.011 -26.0142 270.461 -26.2757 295.481C-26.3232 301.261 -26.8224 307.318 -25.6497 312.986C-21.3153 336.992 22.9559 334.836 26.7594 313.097C28.5106 300.928 20.1112 290.36 17.7816 278.96C14.1445 255.287 46.9814 252.409 61.6011 262.803C72.4807 270.699 78.2177 284.129 75.6978 297.17C71.8309 313.002 52.3538 332.489 72.0369 345.673C102.013 362.013 117.56 321.477 138.471 308.126C148.503 301.285 159.985 296.964 170.254 290.527C178.194 285.516 185.009 279.531 193.274 274.758C213.971 262.216 228.892 272.11 247.711 282.464C265.699 291.375 293.805 283.526 295.366 262.081C297.608 232.851 260.762 239.526 241.356 237.306C233.416 235.546 223.028 231.479 220.667 223.551C217.584 214.387 223.377 205.19 232.267 201.829C242.561 196.113 255.033 195.78 265.493 190.817C277.838 184.197 279.486 166.756 269.534 156.719C252.545 139.666 225.382 126.403 223.099 99.9235C221.578 78.0424 231.768 38.3236 253.448 29.0875C270.318 21.5877 290.572 25.5913 304.304 37.5863C325.992 53.8781 349.407 68.6241 371.84 84.1628C395.667 102.595 428.314 93.0976 455.882 98.441C470.818 100.407 499.986 118.348 481.024 133.681C465.129 143.638 447.863 134.362 431.389 131.675C404.558 128.456 402.252 163.172 417.569 177.522C429.899 191.317 452.094 186.449 465.755 177.038C471.373 173.439 476.08 168.651 482.268 165.892C497.15 157.219 526.484 164.385 522.8 184.998C521.302 198.317 505.89 208.132 492.918 210.233C480.169 212.714 466.634 211.168 454.178 215.647C443.536 218.747 435.113 226.009 425.771 231.662C402.751 244.759 378.409 255.85 356.301 270.39C341 278.5 325.826 286.999 310.73 295.458C300.041 299.969 292.188 315.388 303.409 323.578C312.894 329.365 325.184 327.724 335.857 327.304C346.531 325.449 358.433 324.815 366.84 332.394C378.211 341.971 375.224 361.378 361.087 366.492C352.244 369.259 342.767 369.179 333.655 368.371C323.979 367.586 315.2 363.233 305.358 365.35C294.978 367.269 284.938 375.902 287.212 387.081C290.532 398.679 300.627 407.075 306.697 417.302C318.005 433.181 310.707 452.922 295.342 462.594C283.678 471.576 269.027 475.921 258.385 486.053C248.432 495.154 255.817 507.862 266.554 511.43C279.264 515.56 293.52 514.181 306.071 519.358C311.776 521.38 317.307 524.138 322.244 527.643C330.295 533.929 337.949 541.524 348.71 542.365C369.265 547.074 390.319 528.927 370.794 511.501C358.441 502.059 338.908 502.281 329.986 488.407C324.241 478.371 334.542 467.922 344.281 464.885C366.119 457.449 387.839 473.487 402.958 487.274C423.005 506.198 432.3 535.634 409.471 556.31C399.202 566.727 382.276 568.567 368.48 572.856C335.517 585.675 363.488 611.79 387.997 610.315C402.141 609.855 416.436 609.871 428.401 617.513C447.189 628.597 440.129 645.919 420.565 650.137C405.771 653.665 388.789 649.011 374.93 656.352C363.251 661.617 356 677.544 367.831 686.193C374.162 692.052 383.694 693.225 392.11 692.48C411.333 691.203 432.664 689.832 449.067 679.256C462.435 671.035 473.346 656.987 490.058 656.178C514.654 652.927 527.078 676.569 506.096 692.321C492.015 701.692 473.853 714.821 488.378 732.08C503.774 751.202 550.28 760.311 556.215 728.885C556.508 711.467 539.139 698.624 561.548 685.844L561.69 685.773L561.667 685.852ZM372.743 154.816C372.965 149.592 373.163 143.987 370.921 138.953C365.406 126.244 353.829 117.444 342.141 110.523C331.531 103.539 322.482 94.6911 313.971 85.3599C308.956 79.8738 303.742 74.6731 295.794 72.2788C288.44 70.3127 278.876 69.2504 272.014 72.5722C260.469 78.5657 261.824 95.357 268.868 104.593C272.466 109.58 277.299 113.671 281.943 117.714C295.279 129.399 310.406 139.222 323.504 151.249C332.046 159.383 334.463 173.376 327.204 182.81C324.035 186.909 319.043 190.127 314.693 193.251C310.374 195.954 305.295 199.514 302.941 203.668C299.368 209.305 299.962 216.884 303.242 222.584C307.395 229.918 316.539 233.152 324.407 234.579C338.441 237.164 352.561 232.676 365.2 226.715C370.271 224.281 375.818 222.085 380.24 218.517C387.276 212.952 389.138 204.596 385.018 196.279C377.965 183.579 371.864 169.776 372.743 154.959V154.808V154.816Z" fill="#20193F" fill-opacity="0.1"/>
<path d="M601.714 421.631C617.689 430.153 613.212 452.438 595.343 454.864C590.93 455.657 585.462 455.292 580.795 454.959C572.824 454.492 565.042 455.364 557.285 457.203C520.391 463.53 502.498 503.788 469.693 501.504C458.354 500.442 451.516 491.047 447.672 481.169C443.378 471.679 436.722 464.092 429.17 457.171C418.393 448.038 404.312 441.807 389.415 438.461C378.655 435.932 367.165 436.004 357.482 430.018C342.339 420.513 346.222 401.081 361.468 394.596C380.604 385.899 404.59 392.059 419.962 405.014C435.335 416.398 450.961 428.314 463.251 442.188C472.34 454.19 496.698 458.472 506.793 446.905C523.6 421.868 492.173 398.227 472.379 386.859C455.089 377.567 432.767 374.103 420.469 357.549C415.049 351.128 413.885 342.748 410.683 335.208C402.553 319.321 385.969 299.033 401.389 282.297C413.005 269.573 438.496 268.772 449.17 283.526C458.695 295.68 454.249 311.853 456.753 325.909C459.138 340.013 475.779 355.068 492.395 356.098C506.587 356.923 523.346 351.286 529.368 338.197C539.305 310.386 503.283 293.761 486.357 277.755C476.349 270.152 468.608 253.131 481.587 244.529C502.855 231.622 517.625 243.086 533.402 257.483C541.714 265.244 550.042 272.99 562.277 273.291C575.462 274.805 595.391 268.368 594.82 252.552C592.419 232.129 566.714 231.987 554.654 220.61C544.971 209.955 551.373 192.855 563.885 188.272C582.681 180.297 601.271 193.521 620.557 193.069C629.884 192.973 640.272 191.126 645.581 182.588C661.516 153.453 624.9 135.504 599.892 143.25C584.488 147.396 568.996 154.024 552.689 151.764C540.613 149.941 532.078 142.956 529.4 131.96C527.879 126.054 529.02 119.624 528.045 113.671C523.291 88.0079 496.722 76.8533 473.433 70.6774C463.639 67.9581 453.425 67.5697 443.909 63.9228C429.891 58.9996 424.202 48.4793 430.24 34.653C433.671 25.0681 436.008 15.3168 436.056 5.37516C436.056 3.94813 436.206 2.08507 437.284 1.30021C438.156 0.626335 439.645 0.459848 440.866 0.483632C492.609 2.2912 482.086 -8.7841 483.687 25.9402C485.28 42.6284 504.725 57.3189 522.158 58.1751C535.779 57.2634 549.139 43.2151 546.524 30.0389C545.042 22.1982 542.269 14.635 540.716 6.81011C540.28 4.85192 539.781 2.81444 540.478 1.74417C541.27 0.443993 543.029 0.539127 544.479 0.483632C558.814 0.483632 573.156 0.483632 587.491 0.483632C590.541 0.356785 592.713 1.54597 592.356 4.93119C592.063 12.8036 591.77 20.8425 590.906 28.5168C590.106 43.4847 581.532 55.8919 571.722 66.7055C557.99 79.9531 554.915 102.643 577.602 107.384C599.377 109.77 621.239 111.95 643.149 112.029C666.247 112.077 688.767 103.285 709.417 94.3502C732.206 82.5614 751.857 74.8237 778.553 79.3585C785.043 80.0324 791.557 80.6587 798.086 80.9758C811.335 80.8569 830.852 82.0619 835.281 96.8713C839.861 116.414 802.935 120.06 789.607 120.576C773.347 119.482 757.293 121.392 741.422 124.048C726.081 126.339 711.453 131.223 696.152 133.966C692.127 134.592 688.101 135.758 684.884 138.326C671.318 148.466 677.84 168.476 693.125 173.701C705.756 180.416 729.71 188.97 727.46 206.34C721.057 233.771 687.848 220.8 668.965 216.805C659.694 214.093 649.9 213.293 640.756 216.25C626.532 219.889 614.218 233.699 624.313 247.795C631.905 258.593 646.493 262.359 659.108 262.208C678.014 261.748 700.906 253.464 716.033 269.161C727.182 280.886 723.767 300.595 711.731 310.497C702.547 318.671 690.328 324.728 678.307 318.425C662.673 310.457 651.659 294.911 633.426 292.183C614.345 288.552 570.938 292.453 563.957 313.272C562.039 321.564 567.435 331.014 576.516 335.549C594.503 343.747 614.836 339.545 633.893 341.321C657.15 342.993 674.591 353.775 681.2 377.004C684.187 387.842 688.846 398.727 689.124 410.048C687.745 431.39 665.534 441.633 648.957 427.997C631.31 413.504 642.142 395.294 624.725 382.847C616.374 376.687 605.89 375.102 596.064 372.81C579.068 368.521 558.877 362.686 542.221 370.519C527.784 376.711 524.495 396.356 536.143 406.956C553.933 423.755 581.223 411.118 601.603 421.551L601.738 421.623L601.714 421.631Z" fill="#20193F" fill-opacity="0.1"/>
<path d="M1406.75 250.181C1425.08 248.722 1443.5 249.135 1461.58 252.314C1465.26 253.376 1470.09 253.035 1472.98 255.604C1475.12 281.417 1473.17 308.174 1473.71 334.265C1473.56 337.483 1470.65 336.897 1468.64 335.842C1463.54 333.353 1460.42 329.5 1458.06 325.06C1454.43 318.663 1454.32 310.79 1452.91 303.679C1450.31 289.599 1437.36 280.616 1421.5 282.495C1394.36 288.013 1367.66 295.862 1342.47 306.826C1336.65 310.069 1330.59 313.739 1326.23 318.956C1316.06 330.578 1320.94 349.296 1337.99 351.444C1349.44 352.768 1360.18 346.466 1369.86 341.178C1383.84 332.655 1402.76 330.174 1417 339.489C1425.84 345.459 1433.21 353.371 1442.99 357.93C1450.68 361.941 1458.78 364.851 1467.24 367.031C1469.44 367.641 1471.6 367.903 1472.8 369.449C1473.67 370.487 1473.79 372.208 1473.78 373.643C1473.32 401.002 1474.68 428.726 1473.28 455.927C1469.95 459.962 1454.67 444.582 1453.63 440.721C1449.6 433.261 1452.97 424.461 1451.41 416.501C1445.54 384.924 1402.81 374.998 1373.83 377.29C1360.28 377.266 1346.87 374.546 1333.29 376.156C1322.6 377.337 1312.35 383.521 1310.94 394.541C1309.63 411.578 1305.45 428.361 1304.02 445.414C1302.49 459.811 1306.66 469.301 1321.6 472.829C1338.2 477.665 1353.71 461.865 1353.79 446.587C1353.94 440.705 1350.68 435.029 1351.35 429.098C1352.43 419.418 1359.63 410.658 1369.18 408.407C1380.45 405.346 1391.84 410.555 1397.94 419.617C1403.92 427.513 1403.87 436.392 1404.05 445.47C1405.51 461.452 1419.86 471.759 1433.35 478.45C1440.34 481.668 1448.06 483.761 1455.34 485.506C1459.93 486.56 1464.62 487.321 1469.4 487.662C1472.35 487.591 1474.14 489.842 1473.77 492.752C1473.56 506.61 1474.18 520.602 1473.53 534.405C1471.95 538.512 1466.24 534.722 1463.56 533.565C1432.28 515.259 1368.94 470.379 1333.43 496.803C1308.05 518.969 1353.25 537.299 1372.77 538.091C1391.22 539.907 1425.42 534.976 1428.87 559.917C1429.03 576.169 1409.39 580.538 1397.92 587.221C1379.13 597.091 1363.23 609.007 1348.95 623.816C1342.1 630.682 1340.14 643.105 1346.45 650.795C1352.07 656.447 1361.65 656.574 1368.94 656.344C1373.94 655.972 1378.85 654.259 1383.17 651.595C1402.23 639.688 1421.12 627.772 1440.02 615.658C1448.37 609.831 1454.29 602.87 1457.41 594.063C1459.75 586.967 1461.38 579.15 1466.47 573.466C1468.01 571.793 1470.82 569.042 1472.72 569.827C1473.83 570.453 1473.72 572.134 1473.77 573.426C1473.77 596.441 1473.77 619.464 1473.77 642.478C1474.44 647.639 1469.48 648.821 1465.56 650.161C1438.13 661.894 1410.24 672.414 1384.63 687.231C1376.3 693.455 1372.22 703.809 1375.49 713.75C1381.07 730.217 1405.27 732.777 1419.76 728.98C1438.41 723.914 1449.47 706.98 1461.01 692.987C1463.41 690.236 1473.71 677.448 1473.77 687.58C1473.77 706.694 1473.77 725.809 1473.77 744.923C1473.9 747.396 1472.98 749.767 1470.34 750.33C1445.7 758.345 1420.05 762.808 1394.13 764.798C1362.38 769.079 1338.41 745.621 1336.68 715.97C1335.93 701.914 1341.07 688.698 1330.7 676.695C1308.33 652.412 1280.19 676.299 1254.32 675.863C1245.77 675.752 1235.21 674.087 1229.21 667.57C1220.01 657.581 1221.48 641.884 1235.53 636.358C1250.41 629.437 1266.41 633.837 1281.94 633.639C1307.65 632.418 1315.24 604.662 1332.38 589.734C1336.08 585.897 1341 582.393 1343.67 577.707C1348.41 569.962 1344.39 560.155 1337.51 555.129C1328.5 548.255 1315.13 547.446 1304.68 551.878C1290.43 557.753 1284.74 571.103 1275.47 582.091C1269.03 590.289 1260.7 596.782 1250.73 600.143C1239.85 604.266 1226.4 604.876 1216.99 597.464C1207.05 590.796 1206.34 579.729 1212.32 569.922C1228.86 537.259 1280.25 546.424 1286.19 514.213C1288.88 501.33 1279.54 490.92 1273.92 480.345C1266.5 466.399 1261.94 451.281 1261.53 435.377C1260.02 412.799 1269.51 391.631 1275.5 370.242C1276.46 365.739 1276.69 361.101 1276.17 356.503C1271.65 322.389 1299.19 296.306 1319.21 271.793C1327.88 258.347 1344.19 256.064 1359.02 255.984C1375.01 255.469 1390.74 252.044 1406.59 250.221L1406.74 250.205L1406.75 250.181Z" fill="#20193F" fill-opacity="0.1"/>
<path d="M1125.47 1.41908C1126.2 0.689713 1127.65 0.507371 1128.77 0.523226C1138.23 0.515298 1147.73 0.523226 1157.2 0.523226C1161.69 0.3171 1161.7 3.30593 1161.02 7.46808C1157.91 31.2201 1170.86 50.0252 1198.76 48.8597C1215.25 49.2641 1239.15 46.9253 1246.01 65.6273C1250.63 85.5184 1220.02 88.9671 1206.53 84.4799C1185.72 78.3278 1164.28 71.5891 1145.43 86.8265C1136.66 93.6446 1131.78 103.99 1123.55 111.562C1111.13 123.786 1092.04 127.798 1076.05 120.354C1060.8 114.376 1045.98 103.459 1028.8 108.224C1016.79 110.491 1004.82 120.037 1004.54 132.214C1003.7 143.971 1013.65 155.609 1008.56 167.231C1003.8 178.378 990.242 184.3 978.736 180.915C964.553 176 954.553 163.783 942.334 155.72C929.101 146.452 910.852 146.714 897.326 155.411C869.457 178.251 946.827 190.833 907.175 237.536C900.471 245.884 890.234 251.592 886.264 261.93C882.135 272.546 888.253 282.408 899.576 285.548C915.583 290.257 934.069 284.343 944.616 273.133C960.234 256.69 957.437 246.582 957.793 226.405C958.483 215.798 964.973 206.11 976.439 203.906C994.18 200.886 1008.4 205.452 1008.96 225.652C1012.41 250.324 1006.45 275.463 984.069 289.456C966.272 301.499 947.492 311.131 927.667 320.209C905.155 332.299 877.571 327.368 862.88 306.707C856.462 297.344 849.37 287.474 838.601 283.058C826.755 276.898 809.068 279.855 795.289 282.218C774.726 285.246 760.629 278.072 750.043 260.48C741.517 246.519 755.281 229.854 770.13 228.395C781.628 227.254 792.333 232.565 802.515 236.91C818.466 244.854 841.375 257.856 856.43 242.071C865.844 230.766 871.066 215.275 868.839 200.901C866.89 181.367 851.636 170.371 832.555 177.768C822.531 182.073 816.335 189.802 806.43 194.44C791.691 202.32 773.934 201.567 760.772 191.483C749.132 182.976 748.965 170.014 758.26 161.84C766.588 154.682 777.809 151.835 788.609 151.035C812.428 151.788 832.658 151.122 853.126 137.748C909.418 93.5811 941.629 145.43 970.915 109.881C979.473 99.2337 987.619 88.1347 998.023 78.8511C1013.29 66.7293 1019.24 49.2641 1020.51 31.236C1021.65 22.4598 1022.89 13.6994 1024.7 5.02628C1024.97 3.79746 1025.35 2.49728 1026.26 1.64899C1027.22 0.713496 1028.87 0.515298 1030.27 0.531154C1044.35 0.531154 1058.44 0.531154 1072.52 0.531154C1079.07 0.0871908 1076.25 8.02304 1076.1 11.9949C1073.74 36.294 1058.29 43.223 1053.78 64.8345C1050.4 78.8748 1065.59 86.6759 1078.89 86.7552C1091.08 86.4143 1103.16 80.6507 1111.93 72.3977C1122.62 62.7415 1125.11 50.588 1124.33 37.4832C1124.42 26.6536 1124.43 15.8083 1124.47 4.97872C1124.49 3.7816 1124.6 2.28322 1125.39 1.51422L1125.46 1.43494L1125.47 1.41908Z" fill="#20193F" fill-opacity="0.1"/>
<path d="M1259.53 173.637C1238.6 158.281 1249.77 129.598 1266.46 113.948C1273.57 106.749 1281.23 99.9156 1285.02 90.2673C1293.17 69.4961 1274.87 58.6587 1282.78 36.7538C1287.04 25.9719 1291.55 16.498 1290.45 4.62197C1290.14 1.68864 1291.57 0.0634205 1294.6 0.364681C1305.89 0.634231 1317.34 -0.182345 1328.56 0.689726C1330.9 1.40324 1331.71 3.83711 1333.2 5.58125C1337.56 10.6234 1343.59 13.8739 1350.59 13.7232C1360.24 13.3982 1368.8 8.08647 1375.39 1.61729C1405.42 -1.82342 1437.01 1.5063 1467.57 0.317114C1469.17 0.33297 1471.07 0.301258 1472.39 1.22882C1473.73 2.20396 1473.79 4.30486 1473.79 5.95386C1473.65 29.4046 1473.82 52.8554 1473.68 76.2983C1473.37 81.6655 1465.22 78.7718 1461.77 78.8828C1454.35 78.3833 1447.99 74.5938 1442.84 69.401C1436.91 64.4698 1441.09 56.3913 1445.22 51.2223C1451.85 43.5084 1465.38 32.8295 1456.5 22.0793C1448.98 13.8421 1436.85 14.9838 1426.91 17.045C1414.18 20.5967 1407.61 31.4659 1398.65 39.8616C1384.08 52.8475 1364.91 45.2843 1347.95 43.0407C1335.77 41.7008 1319.36 48.3762 1320.24 62.4086C1320.63 69.1711 1324.06 75.2439 1329.74 78.8194C1336.73 83.7505 1346.61 85.9941 1355.34 85.4392C1369.13 85.1934 1382.38 86.9058 1394.78 90.9649C1414.19 99.2179 1434.11 105.846 1455.43 104.474C1460.13 104.355 1464.9 103.983 1469.67 103.459C1472.56 103.055 1473.8 104.331 1473.72 106.94C1473.69 145.802 1473.83 184.72 1473.68 223.599C1473.56 225.533 1472.45 226.54 1470.7 226.453C1458.94 225.113 1443.6 215.267 1441.29 203.074C1438.36 183.309 1471.47 163.886 1450.18 139.539C1433.41 121.178 1397.84 132.832 1394.68 156.473C1391.94 169.182 1398.24 181.145 1400.08 193.473C1402.28 207.894 1392.29 219.231 1377.55 221.633C1362.45 224.828 1337.18 225.407 1325.24 214.45C1317.66 206.221 1318.43 195.526 1326.92 188.605C1335.47 180.78 1346.52 173.867 1352.92 164.14C1360.31 152.898 1370.08 136.638 1360.92 123.89C1352.76 113.623 1338.58 108.367 1325.79 111.181C1316.15 113.393 1307.25 120.481 1304.93 130.311C1302.45 140.499 1305.32 151.875 1301.03 161.674C1294.37 177.007 1273.84 181.803 1259.67 173.724L1259.53 173.637Z" fill="#20193F" fill-opacity="0.1"/>
<path d="M919.394 1.32391C920.044 0.713457 921.09 0.554898 922.033 0.531115C927.841 0.499403 933.736 0.531115 939.576 0.515259C948.958 0.515259 958.364 0.515259 967.738 0.515259C968.863 0.515259 970.194 0.681745 970.915 1.47454C971.629 2.16427 971.795 3.61507 971.811 4.76462C971.961 11.4241 971.866 18.0597 970.614 24.6241C963.879 53.3073 941.779 75.7988 911.145 85.7483C899.481 89.7757 884.235 92.9072 872.817 86.2398C866.438 82.482 862.484 76.3775 863.609 69.4168C864.322 65.1912 867.357 61.1955 870.234 57.8896C877.627 49.6683 887.975 45.4031 898.229 40.6702C909.529 35.7628 918.697 25.5992 918.95 12.7797C919.006 10.7264 918.823 8.68101 918.681 6.63561C918.633 4.92318 918.142 2.68751 919.307 1.38733L919.386 1.30805L919.394 1.32391Z" fill="#20193F" fill-opacity="0.1"/>
<path d="M661.001 1.13369C661.334 0.531172 662.713 0.531172 663.513 0.523244C673.902 0.523244 684.314 0.523244 694.71 0.523244C699.512 0.523244 704.33 0.507388 709.116 0.531172C711.691 0.436037 713.854 1.89477 715.201 4.03531C722.412 13.6281 732.666 26.3207 727.182 38.6407C723.418 46.3149 715.249 50.4929 707.697 53.7909C694.021 59.9271 680.883 67.0385 666.667 72.2471C654.48 76.6075 639.575 81.0471 626.976 75.9257C617.665 71.8824 612.53 61.806 619.377 53.2439C627.951 41.5185 643.68 38.0936 656.968 33.4082C667.206 29.4919 672.84 20.6681 667.23 10.1953C666.152 8.22125 664.781 6.4454 663.315 4.73297C662.499 3.59928 660.875 2.46558 660.97 1.20504L660.993 1.14955L661.001 1.13369Z" fill="#20193F" fill-opacity="0.1"/>
<path d="M844.267 1.37147C844.988 2.14841 845.027 3.40895 845.02 4.46336C844.988 8.72065 844.964 13.0017 844.6 17.2273C844.037 24.1325 842.436 31.2756 838.807 37.2532C833.165 47.2583 820.281 51.5473 808.213 51.6424C789.869 51.6979 776.049 42.1765 770.78 26.3841C768.775 19.566 768.878 11.6302 768.648 4.46336C768.545 2.81436 768.878 0.911655 770.835 0.650034C785.423 0.269494 800.107 0.634178 814.71 0.515259C823.554 0.515259 832.413 0.515259 841.248 0.515259C842.278 0.515259 843.49 0.618322 844.196 1.2922L844.275 1.37147H844.267Z" fill="#20193F" fill-opacity="0.1"/>
<path d="M387.26 1.30805C388.132 2.02157 388.496 3.23454 388.821 4.31274C391.729 13.5408 396.468 23.0702 394.693 32.9563C392.324 43.6431 379.827 48.2334 369.938 46.2197C361.309 44.2774 353.623 38.5931 348.52 31.5531C343.068 23.5142 342.038 13.4298 339.637 4.20967C338.9 1.45868 339.978 0.396344 342.775 0.515263C347.371 0.515263 351.975 0.515263 356.571 0.515263C365.858 0.515263 375.192 0.499407 384.471 0.523191C385.422 0.546974 386.444 0.689677 387.173 1.24463L387.268 1.31598L387.26 1.30805Z" fill="#20193F" fill-opacity="0.1"/>
<path d="M74.01 1.30816C74.5647 2.09302 74.327 3.32185 74.2081 4.2732C73.598 8.66526 74.0179 13.1208 73.5583 17.5287C72.9403 23.6649 70.2699 29.1986 66.0306 33.5827C59.5805 40.7178 49.3823 40.8209 40.2856 39.3225C31.0067 36.8252 23.8751 28.0887 21.6326 19.7009C20.0478 14.1038 20.0954 8.04689 20.5391 2.30707C20.8561 0.975184 22.1952 0.555004 23.471 0.53122C28.7166 0.491581 34.0495 0.53122 39.3268 0.515364C50.0559 0.515364 60.8325 0.507436 71.5457 0.515364C72.3935 0.53122 73.4236 0.618427 73.9387 1.22095L74.0021 1.30023L74.01 1.30816Z" fill="#20193F" fill-opacity="0.1"/>
<path d="M1214.05 517.162C1202.61 516.33 1194.51 507.633 1188.22 498.753C1152.6 447.912 1116.17 501.988 1071.6 465.583C1067.33 462.8 1063.34 459.249 1059.18 456.188C1048.38 448.514 1034.05 450.758 1024.16 458.797C1002.68 478.196 1030.4 511.398 1051.8 517.233C1059.73 519.746 1069.2 519.857 1077.55 519.009C1087.77 518.185 1097.94 517.297 1108.23 516.742C1130.23 515.537 1151.68 518.399 1170.15 530.132C1176.1 533.811 1181.94 539.487 1182.77 546.511C1184.02 557.238 1174.37 571.674 1162.41 576.97C1153.68 580.736 1143.25 581.124 1135.78 575.369C1130.85 572.198 1127.84 567.147 1124.14 562.874C1119.51 557.88 1114.16 553.456 1108.42 549.754C1098.02 542.864 1081.47 547.447 1076.16 558.847C1073.13 565.181 1077.71 575.987 1080.02 582.417C1085.64 592.771 1089.67 602.601 1087.03 614.548C1085.92 621.422 1082.64 628.549 1083.96 635.557C1088.15 660.412 1119.17 660.158 1129.06 639.458C1136.79 621.311 1141.77 602.918 1166 606.042C1176.21 606.66 1186.99 611.298 1190.03 621.715C1196.12 637.777 1186.59 652.507 1171.93 660.015C1150.88 669.814 1129.37 676.727 1124.88 702.414C1123.72 711.372 1122.75 720.442 1120.92 729.313C1119.22 739.271 1115.84 749.022 1113.86 758.971C1110.12 781.661 1121.81 794.092 1137.65 808.164C1151.49 824.464 1147.09 839.979 1124.24 840.795C1109.39 841.62 1094.01 843.174 1079.49 839.789C1064.41 837.244 1051.12 825.78 1058.38 811.684C1061.38 805.714 1065.98 800.823 1070.16 795.662C1077.23 788.281 1082.79 777.19 1077.87 767.486C1066.74 746.826 1030.53 748.063 1017.48 766.551C1005.99 783.992 1021.76 804.224 1017.6 822.878C1014.48 840.129 999.664 845.37 983.681 844.926C966.391 845.045 948.871 832.336 958.546 813.904C965.567 798.809 970.931 783.429 973.11 767.09C974.038 760.208 974.497 753.287 974.996 746.374C974.901 736.678 979.418 728.829 988.158 724.493C1002.25 716.985 1019.83 719.11 1035.22 721.71C1043.02 723.042 1050.95 725.508 1058.93 724.81C1079.05 723.518 1098.21 707.258 1088.25 686.185C1075.24 658.937 1047.77 668.99 1028.04 682.071C1011.66 691.402 988.142 696.824 970.416 686.336C963.831 681.88 960.266 674.159 962.738 666.627C967.064 655.052 979.149 649.297 990.765 646.95C1001.8 644.524 1012.77 645.84 1023.76 643.85C1034.24 642.225 1044.39 634.241 1045.96 623.396C1045.08 615.73 1042.25 608.373 1041.1 600.675C1037.77 584.446 1038.38 567.021 1028.81 552.679C1024.7 546.575 1018.94 541.881 1013.06 537.434C995.385 524.487 978.451 509.813 970.662 490.952C962.191 471.973 967.698 455.499 984.988 444.154C992.968 438.509 1002.89 434.926 1011.34 429.757C1022.15 423.089 1030.92 415.161 1037.1 404.657C1039.57 399.964 1041.21 395.04 1043.74 390.426C1051.36 375.982 1040.23 357.375 1024.92 353.49C1013.43 351.183 1000.89 356.376 992.382 364.003C978.824 375.625 985.107 391.766 978.839 405.798C973.689 416.628 957.27 427.545 945.044 425.602C931.478 422.772 924.093 411.713 928.998 398.1C931.145 390.49 933.617 382.982 935.575 375.379C938.079 362.203 941.914 353.657 953.538 345.99C967.033 337.571 981.724 330.864 995.718 323.38C1007.29 316.839 1019.91 308.943 1033.76 310.22C1056.67 312.756 1060.05 336.104 1075.4 348.797C1092.99 364.843 1111.76 357.01 1133.08 356.106C1144.8 355.147 1156.27 358.033 1167.91 358.453C1182.11 358.873 1196.4 356.297 1210.5 358.889C1223.77 361.41 1235.41 372.612 1231.72 386.542C1229.68 395.231 1223.51 402.707 1214.75 406.044C1191.4 415.312 1163.81 395.381 1139.1 393.098C1122.29 391.576 1095.61 390.371 1081.02 398.941C1073.26 403.706 1069.07 413.132 1072.24 421.551C1077.71 434.973 1095.07 438.081 1108.07 438.327C1130.08 438.985 1152.03 438.771 1174.05 438.406C1179.7 438.422 1185.35 438.739 1190.88 439.722C1211.95 444.154 1216.19 448.181 1225.69 467.248C1229.22 474.605 1233.67 481.803 1234.91 490.001C1238.61 505.579 1231.17 517.685 1214.21 517.162H1214.05Z" fill="#20193F" fill-opacity="0.1"/>
<path d="M796.295 497.453C799.607 499.76 802.714 502.162 806.351 503.938C812.975 507.3 820.669 509.258 827.349 512.809C838.213 518.105 855.13 530.956 843.165 543.554C840.717 546.123 836.842 548.247 833.554 549.817C817.912 557.349 801.85 564.317 785.772 571.199C775.051 576.923 754.774 572.705 754.995 558.411C755.954 549.603 762.983 543.173 766.588 535.253C773.585 522.077 767.079 506.023 753.688 500.204C743.379 495.796 729.116 495.685 720.772 501.758C714.235 506.887 711.271 515.838 710.851 523.901C710.011 536.387 717.483 547.986 717.444 560.345C717.38 581.33 693.101 587.237 676.112 582.813C656.318 579 617.713 573.561 619.385 603.917C620.13 611.242 627.863 615.531 634.496 617.474C646.849 621.16 661.73 625.624 666.247 638.681C671.596 655.33 653.648 664.867 639.203 662.489C625.724 661.291 616.049 651.421 602.736 649.661C595.668 648.353 588.204 648.488 581.144 649.661C568.568 652.04 552.395 655.377 541.809 646.656C531.413 638.546 536.468 625.457 546.627 618.663C561.77 608.27 590.882 604.678 590.898 581.679C590.732 573.426 587.776 565.292 580.224 560.496C564.392 551.95 545.589 551.181 528.338 555.866C515.097 559.005 502.506 567.98 504.955 582.203C505.533 593.119 514.297 604.591 507.871 615.024C501.912 624.332 489.693 628.938 479.242 624.046C465.137 617.878 454.669 604.876 450.897 590.368C444.653 570.097 454.305 551.149 470.834 539.312C482.047 531.131 496.777 527.611 511.294 526.041C532.277 523.718 551.46 518.652 567.427 505.658C574.749 500.18 579.282 491.689 586.786 486.322C592.443 482.239 599.369 478.846 606.381 476.428C612.38 474.446 618.616 475.406 624.06 478.466C636.112 484.935 636.31 494.282 628.275 504.271C622.911 511.216 614.749 516.203 609.733 523.465C602.396 533.882 604.036 543.728 616.001 549.325C625.145 554.027 635.977 554.907 645.97 552.449C663.68 548.152 680.32 533.914 676.619 515.243C674.028 496.494 648.664 464.758 676.604 454.706C695.605 449.315 708.743 466.843 725.851 470.633C746.548 474.224 758.989 456.941 749.94 438.921C740.812 422.978 731.414 420.505 727.444 399.9C722.832 381.666 721.128 361.561 730.011 344.381C745.162 313.184 784.528 305.7 814.496 324.291C833.752 336.873 852.207 349.463 875.249 355.274C880.281 356.447 885.281 358.278 889.307 361.632C909.045 376.854 897.777 402.294 872.864 404.149C852.967 405.307 834.021 391.853 823.244 377.424C818.141 370.963 813.046 364.653 806.327 359.682C798.244 352.975 786.652 351.112 776.802 355.94C761.533 363.471 761.549 381.761 769.417 394.382C774.346 403.412 779.916 411.863 788.474 418.047C794.789 422.796 803.189 425.69 811.034 427.164C835.329 431.85 859.394 436.67 884.275 438.691C900.139 439.207 917.643 444.162 923.181 460.731C928.602 476.127 931.779 494.718 921.018 508.592C910.971 522.711 883.062 523.298 875.836 506.427C873.062 498.04 870.242 489.612 864.275 482.866C851.715 467.232 817.183 454.198 796.85 459.019C789.663 460.842 782.547 466.059 782.698 473.709C782.27 483.111 787.761 491.959 796.176 497.366L796.311 497.461L796.295 497.453Z" fill="#20193F" fill-opacity="0.1"/>
<path d="M845.653 824.504C825.059 803.939 808.371 780.091 777.476 774.907C773.363 774.122 768.91 773.844 764.686 773.487C754.266 772.544 744.821 769.436 736.113 764.299C720.336 755.222 707.182 744.582 694.86 732.278C679.908 718.032 674.789 700.202 689.195 681.983C691.318 679.224 693.711 676.529 695.526 673.619C698.204 669.402 700.13 664.938 701.738 660.332C704.147 653.625 705.011 646.577 705.265 639.561C705.558 634.329 705.146 628.636 706.073 623.626C707.61 614.327 715.391 608.381 724.116 606.018C740.471 601.039 757.444 606.692 774.171 605.638C798.244 604.964 820.725 597.789 839.029 582.805C847.428 577.057 857.096 572.332 867.666 574.639C875.828 576.336 882.587 582.004 885.511 589.734C890.979 602.332 897.476 614.636 906.644 625.838C915.868 635.97 921.121 647.259 921.383 661.054C921.573 665.604 921.755 670.171 922.421 674.682C925.678 694.597 938.499 713.449 934.616 734.403C928.562 760.66 921.208 786.616 917.492 813.198C916.866 817.59 915.471 821.959 913.063 825.59C903.689 840.716 878.332 844.141 863.054 836.316C856.707 833.43 851.176 828.816 845.756 824.607L845.653 824.512V824.504ZM885.947 732.706C886.185 716.462 885.701 702.406 882.365 688.048C879.631 675.554 875.535 663.274 873.609 650.605C872.753 645.658 871.787 640.616 869.623 636.041C862.452 620.851 842.833 621.105 828.458 626.385C813.094 631.213 797.246 635.407 780.804 636.683C775.843 637.222 770.796 638.237 766.564 639.696C747.127 646.332 742.063 659.547 737.674 678.099C735.201 688.397 729.987 698.965 733.593 709.628C736.976 721.203 743.672 731.192 755.621 738.462C763.728 743.441 772.856 746.192 782.428 741.911C791.034 738.216 796.216 731.533 794.124 721.853C793.49 718.079 792.46 714.393 791.065 710.77C788.847 704.982 785.495 699.235 784.465 693.13C782.27 673.746 798.902 661.791 819.71 665.168C822.42 665.517 825.36 666.207 827.579 667.594C831.2 669.743 832.563 673.707 834.354 677.314C844.188 697.379 837.365 720.006 830.978 740.309C828.023 748.903 828.062 758.599 832.191 766.669C841.145 784.626 871.668 800.625 885.479 777.951C889.806 771.276 889.021 765.266 887.524 757.711C886.216 749.402 885.701 740.761 885.923 732.849V732.698L885.947 732.706Z" fill="#20193F" fill-opacity="0.1"/>
<path d="M-43.7638 179.504C-44.3423 179.076 -44.4849 177.776 -44.4532 176.904C-44.4691 169.19 -44.477 161.42 -44.4849 153.691C-44.7623 149.972 -42.29 148.585 -39.0015 147.872C-27.282 144.367 -18.9301 138.477 -14.9048 127.6C-9.31046 112.053 -4.61155 97.117 7.94001 84.7177C10.3093 82.3076 13.0827 80.3336 15.4282 77.9711C17.3458 76.0922 19.6596 75.2994 22.1635 74.0071C37.6311 65.4846 57.021 60.8864 72.6233 71.1293C80.3492 75.8068 85.9673 85.5502 80.4284 93.7714C74.4141 102.524 57.552 106.432 47.6628 110.412C40.3332 112.664 31.7911 117.08 31.8466 125.824C30.9671 135.686 39.4932 143.123 48.5503 145.668C58.4394 148.989 68.9704 146.944 78.6772 143.876C91.2843 140.229 103.495 136.669 115.278 130.993C128.567 124.643 135.666 113.282 131.3 98.9721C129.303 90.7588 126.031 83.0132 121.91 75.45C116.403 64.8345 106.871 52.6255 110.254 40.147C111.942 33.9711 117.069 29.2857 123.162 26.8201C142.671 20.3034 171.316 19.0666 190.175 28.0648C200.492 33.765 200.017 43.4926 192.497 51.8407C188.638 56.6767 184.399 60.934 180.088 65.4529C169.272 77.0831 164.882 90.6399 168.273 105.235C170.682 117 178.606 127.917 189.668 134.925C195.77 139.079 201.134 143.709 207.03 148.094C214.74 153.263 217.458 163.91 212.885 172.099C208.789 178.656 196.023 179.813 188.828 179.583C172.085 179.496 161.221 166.439 145.357 162.633C129.034 158.257 111.419 161.666 97.4016 170.799C92.4491 174.081 85.9673 178.402 84.7391 184.57C83.6693 188.74 87.2351 194.535 91.0941 198.238C96.0862 203.422 102.322 206.475 109.517 208.203C121.173 210.906 133.416 210.256 145.033 208.147C154.327 206.364 164.359 204.58 173.511 207.648C179.423 210.288 186.221 216.932 187.774 223.456C188.638 228.38 184.098 232.534 181.245 236.133C170.096 247.573 157.212 256.904 142.885 264.785C131.047 272.078 123.313 275.146 112.005 264.618C105.563 259.156 104.454 250.34 101.078 242.991C94.4618 227.333 77.4966 217.336 59.8974 221.831C49.1446 224.733 39.6596 230.655 29.1128 234.238C13.3045 239.629 -0.475235 233.858 -3.93008 220.095C-5.45148 214.799 -2.39284 209.836 1.77517 206.76C6.45823 202.986 12.0684 199.982 18.0748 198.412C26.5059 196.644 35.4124 194.726 41.4108 188.193C52.1478 176.142 40.6581 165.25 28.9544 161.397C15.8164 157.599 -0.609943 162.728 -13.5577 166.011C-23.4706 168.904 -32.7258 173.495 -41.0539 178.703C-41.8621 179.163 -42.9952 179.892 -43.7005 179.536L-43.7638 179.496V179.504Z" fill="#20193F" fill-opacity="0.1"/>
<path d="M197.616 733.436C193.654 732.357 189.613 731.121 185.437 731.097C178.828 730.867 172.021 731.073 165.92 733.182C161.887 734.799 157.814 736.29 153.733 737.923C136.625 746.303 122.687 760.081 104.058 765.441C76.6962 773.638 61.926 754.357 40.8958 742.497C34.1525 738.827 26.6643 736.44 19.0098 735.83C13.8117 735.56 8.70862 736.813 3.54219 737.217C-1.92534 738.058 -7.44042 739.271 -12.7495 740.951C-19.1837 743.409 -25.2297 746.707 -30.8557 750.798C-34.8098 753.747 -38.4152 757.196 -41.6244 760.755C-42.0919 761.231 -42.5832 761.794 -43.0666 762.087C-43.4469 762.325 -43.7401 762.341 -43.9382 762.103C-44.168 761.841 -44.2789 761.263 -44.3265 760.486C-44.4057 747.761 -44.2868 735.037 -44.4929 722.297C-44.5087 720.648 -44.3899 718.777 -43.5578 717.405C-42.4564 715.637 -40.3011 715.003 -38.3914 714.456C-30.4358 712.474 -22.7099 710.556 -14.7622 708.637C-7.67814 706.861 -0.150372 705.387 5.94316 701.256C9.50101 698.283 13.3283 695.762 16.7277 692.567C18.2491 691.029 19.6041 689.348 20.9036 687.62C26.9417 679.335 32.4647 670.583 39.6596 663.202C52.0765 649.78 71.6962 638.721 91.8072 640.941C106.649 642.407 116.229 657.296 107.148 669.909C103.788 675.609 98.6615 679.161 92.5758 681.302C83.9149 684.75 75.1986 688.024 67.5203 692.734C51.7516 701.867 53.0511 716.145 69.533 724.334C75.6027 727.363 82.5996 728.956 89.3429 728.076C112.449 724.342 133.392 714.789 147.877 697.776C153.939 690.078 153.891 680.112 150.936 671.098C145.785 657.764 145.326 642.804 153.131 630.436C157.98 623.031 163.337 615.603 166.911 607.818C170.342 600.794 172.996 593.524 175.128 586.119C176.697 580.197 180.056 574.933 184.747 570.961C191.332 564.967 200.009 562.391 209.106 563.279C218.226 564.27 227.996 568.051 231.673 576.828C235.199 585.358 228.773 591.962 223.313 597.844C206.705 612.907 198.028 631.927 194.43 652.896C193.147 659.833 192.045 666.794 190.001 673.572C187.766 679.629 188.353 686.225 191.261 691.909C196.419 702.461 208.472 707.654 222.838 705.846C233.091 704.308 242.798 701.28 253.163 700.947C258.559 700.828 264.423 700.907 269.645 702.834C272.331 703.991 274.978 705.799 277.347 707.519C285.485 713.632 288.575 721.837 286.951 731.224C285.342 742.299 276.095 750.045 264.978 751.892C253.741 753.85 242.291 751.392 232.03 747.198C220.722 742.331 209.993 736.052 197.782 733.483L197.632 733.444L197.616 733.436Z" fill="#20193F" fill-opacity="0.1"/>
<path d="M1343.55 843.943C1322.28 842.413 1299.61 833.858 1292.29 813.61C1285.31 796.613 1273.14 781.558 1262.84 766.32C1257.61 758.329 1252.38 749.775 1251.64 740.023C1251.05 733.967 1249.5 727.735 1251.64 721.805C1254.97 712.553 1263.72 704.617 1274.28 703.523C1289.82 702.049 1301.9 714.083 1301.29 729.075C1300.39 755.15 1309.67 772.639 1332.76 786.838C1338.96 790.627 1345.73 793.64 1352.76 796.312C1362.25 799.348 1373.12 805.912 1375.94 815.553C1377.55 820.547 1376.19 825.693 1373.2 830.196C1366.98 839.416 1355.05 844.046 1343.71 843.959H1343.54L1343.55 843.943Z" fill="#20193F" fill-opacity="0.1"/>
<path d="M-44.4295 434.521C-44.4295 428.9 -44.3344 423.256 -44.4215 417.619C-44.4215 416.208 -44.5325 414.638 -44.1759 413.29C-43.2805 409.857 -37.9714 413.14 -35.7686 413.552C-30.5467 415.248 -25.0712 416.105 -19.778 417.548C-1.02992 422.796 17.845 443.583 0.499405 458.709C-6.48161 464.639 -16.3786 466.756 -25.618 464.624C-29.8018 463.64 -33.4785 461.984 -37.3851 460.842C-43.2329 459.248 -44.8891 457.758 -44.4374 451.503C-44.2948 445.898 -44.4374 440.277 -44.4374 434.68V434.521H-44.4295Z" fill="#20193F" fill-opacity="0.1"/>
<path d="M1208.2 326.194C1177.72 325.528 1149.51 321.572 1120.94 317.117C1105.42 314.294 1092.04 306.16 1079.66 297.368C1073.43 293.174 1066.78 289.829 1061.02 284.874C1055.17 279.943 1049.81 273.022 1048.09 265.783C1045.55 256.286 1049.14 248.445 1052.48 239.677C1055.54 230.687 1056.47 220.983 1055.42 211.636C1054.74 205.381 1053.24 199.205 1051.2 193.251C1047.64 182.849 1040.64 170.878 1049.29 161.182C1056.64 152.319 1070.71 151.32 1081.45 153.358C1094.33 155.173 1106.89 158.828 1119.93 159.224C1127.96 159.042 1136 156.553 1143.21 152.803C1154.34 146.603 1158.67 137.09 1165.12 127.774C1169.2 121.384 1174.59 115.502 1181.61 112.299C1193.41 106.313 1208.16 107.954 1214.23 120.861C1217.29 127.584 1215.37 135.583 1211.32 141.545C1202.9 154.174 1185.48 168.04 1193.81 184.705C1198.68 194.345 1210.35 199.3 1220.7 200.457C1231.61 201.623 1242.62 201.187 1253.52 202.495C1259.84 203.137 1266.34 204.073 1272.08 206.95C1282.6 211.953 1291.73 223.52 1290.07 235.293C1288.47 245.195 1282.58 253.773 1276.03 261.217C1263.55 275.448 1254.52 290.955 1244.95 306.422C1236.78 318.369 1223.44 327.962 1208.37 326.226H1208.21L1208.2 326.194ZM1166.89 283.804C1173.91 283.804 1180.84 283.804 1187.83 283.827C1210.05 283.827 1239.43 269.399 1238.25 245.052C1238.06 238.361 1233.62 232.605 1227.18 230.282C1222.49 228.586 1217.17 228.816 1212.27 229.315C1203.98 230.219 1196.89 233.517 1190.81 238.813C1184.57 243.871 1176.69 247.2 1168.63 248.73C1156.82 251.688 1139.47 244.743 1143.59 230.536C1145.29 224.32 1150 219.77 1153.78 214.617C1157.6 209.733 1160.88 202.305 1159.87 197.524C1159.22 190.587 1150.79 185.363 1143.55 183.373C1131.41 178.933 1119.45 182.857 1109.61 189.564C1099.64 195.479 1095.95 205.048 1095.62 216.25C1095.25 223.647 1096.1 231.099 1096.06 238.519C1095.98 244.188 1094.87 250.062 1097.77 255.287C1105.64 271.896 1124.78 281.187 1143.09 283.368C1151.05 284.224 1159.39 283.629 1166.72 283.819H1166.88L1166.89 283.804Z" fill="#20193F" fill-opacity="0.1"/>
<path d="M1162.7 744.376C1161.18 718.872 1172.97 685.773 1204.25 688.603C1212.54 689.729 1219.66 696.008 1220.78 704.269C1222.38 713.885 1216.86 721.67 1212.04 729.575C1201.72 747.309 1204.17 764.394 1217.27 780.868C1225.57 791.42 1236.72 799.245 1245.6 809.345C1254.97 819.77 1259.9 832.519 1244.76 840.906C1223.85 851.783 1192.26 842.46 1183.67 821.174C1182.9 819.097 1182.49 816.774 1182.03 814.53C1179.56 802.21 1174.46 790.39 1169.82 778.434C1165.39 767.185 1161.84 755.554 1162.69 744.519V744.368L1162.7 744.376Z" fill="#20193F" fill-opacity="0.1"/>
<path d="M992.722 613.375C987.271 619.178 979.038 622.976 971.161 623.475C963.261 624.038 954.418 622.318 949.307 615.571C946.082 611.805 944.093 607.405 942.231 602.887C936.922 589.972 928.205 578.635 915.781 569.185C909.64 564.856 904.758 558.569 906.541 550.982C907.983 545.346 912.088 541.437 917.468 538.409C924.972 534.247 934.6 533.224 942.888 535.935C953.61 539.035 961.969 544.228 968.879 551.268C979.307 562.486 989.331 574.069 994.228 588.434C996.993 596.623 998.237 605.947 992.833 613.256L992.73 613.375H992.722Z" fill="#20193F" fill-opacity="0.1"/>
</g>
<defs>
<clipPath id="clip0_23_303">
<rect width="1519" height="857" fill="white" transform="translate(-45)"/>
</clipPath>
</defs>
</svg>
