<svg width="676" height="768" viewBox="0 0 676 768" fill="none" xmlns="http://www.w3.org/2000/svg">
<path d="M530.667 641.852C537.568 638.689 545.405 640.433 552.719 640.703C562.172 641.757 571.578 642.597 580.762 645.166C595.033 648.25 618.615 652.761 614.011 672.24C609.399 682.824 598.448 687.136 586.467 688.135C572.814 688.326 557.759 692.519 551.879 705.442C547.719 712.934 547.164 722.32 553.82 728.655C564.637 742.473 584.439 740.031 597.886 731.66C613.131 720.886 627.616 708.026 647.165 718.182C667.719 729.353 677.157 753.842 674.772 776.214C672.014 824.995 691.024 810.313 633.329 812.635C626.214 813.27 628.393 806.142 629.138 801.402C630.54 793.022 635.326 783.984 632.283 775.533C625.144 758.02 603.622 754.389 587.283 761.001C574.835 765.892 564.676 780.012 568.179 793.823C569.423 799.372 573.345 805.627 571.546 811.01C570.627 812.524 568.607 812.612 566.919 812.635C553.987 812.635 541.039 812.635 528.107 812.635C525.548 812.731 522.917 812.025 522.806 809.076C522.584 803.193 522.885 797.239 523.392 791.365C524.082 778.125 532.291 763.324 526.388 750.504C514.335 730.788 486.958 735.766 467.243 733.087C447.687 732.04 428.043 723.684 420.064 705.466C416.403 697.633 415.825 688.437 408.21 682.998C388.392 670.234 362.972 669.497 341.878 679.129C332.195 684.425 330.333 698.886 338.875 705.823C349.216 713.108 362.869 712.799 373.78 718.531C384.073 724.889 381.49 740.198 371.664 745.827C366.506 749.688 359.881 750.298 353.764 751.741C332.821 755.198 309.358 759.542 289.469 749.49C279.731 744.455 274.271 733.459 279.707 723.43C286.07 712.411 298.582 704.451 301.751 691.505C308.471 666.881 273.764 648.979 291.862 624.379C295.927 617.949 302.821 613.668 308.637 608.737C342.615 569.716 266.656 557.459 260.158 596.758C256.886 617.624 243.336 635.779 219.913 628.612C197.765 620.764 206.989 598.772 215.665 583.709C224.287 569.629 234.398 553.147 251.727 548.913C261.973 546.043 274.295 546.559 283.114 540.073C289.897 535.903 294.477 526.85 288.574 520.008C282.797 512.508 271.252 511.581 262.639 509.345C251.188 506.602 240.008 503.399 228.859 499.903C207.512 492.498 184.722 489.065 161.751 490.389C144.492 489.866 127.614 485.64 111.148 480.717C84.6346 473.844 56.7105 478.854 29.5947 477.673C7.27293 478.394 -38.9317 470.197 -38.3057 503.47C-35.2312 523.901 -10.0647 533.2 8.58832 533.565C36.9878 532.161 59.2304 509.733 88.1291 509.94C97.725 510.788 112.432 517.947 112.297 528.538C109.983 542.238 98.4302 553.091 86.2907 558.847C68.652 567.369 47.0116 561.249 28.7469 566.545C23.4141 567.877 18.2635 569.724 13.3269 572.118C5.1097 575.932 -1.80792 582.75 -11.2612 583.447C-24.6369 585.421 -33.7098 574.687 -38.48 563.532C-42.6876 556.025 -47.8461 549.016 -53.7337 542.737C-59.3676 536.189 -66.3328 530.576 -73.6149 525.336C-75.0253 523.909 -75.5721 522.006 -75.5879 520.016C-75.6434 504.945 -75.6593 489.842 -75.691 474.763C-76.1664 468.58 -69.9699 466.28 -65.6671 463.339C-40.3342 446.699 -10.1598 439.595 20.9022 440.253C44.0401 440.451 67.0672 435.06 90.1576 436.717C117.25 440.118 140.657 460.636 168.565 457.227C189.271 454.317 190.887 429.249 202.551 415.883C208.447 408.24 217.012 403.269 223.478 396.11C233.098 386.01 235.919 371.954 227.543 360.982C215.277 345.261 187.931 348.67 176.973 364.859C169.54 373.801 170.618 385.535 167.606 396.15C164.746 404.181 158.058 410.42 150.3 413.774C139.112 418.982 124.912 415.526 115.982 407.233C103.787 397.902 110.609 383.743 116.449 372.898C124.421 356.534 137.852 342.549 153.977 331.847C167.123 324.529 181.172 319.551 196.996 319.979C203.653 320.383 210.435 320.121 216.783 318.187C223.193 316.268 230.23 313.454 235.515 308.927C245.214 301.197 243.764 285.889 232.892 279.855C202.068 263.468 159.405 271.896 134.69 295.386C125.815 304.234 117.836 313.28 106.449 319.947C96.4968 325.869 85.9024 329.548 76.1084 335.914C61.7185 344.833 62.1781 361.101 68.9689 374.713C70.625 378.637 72.7724 382.887 72.6853 387.017C69.1274 410.024 39.2303 411.728 22.1066 399.829C9.45995 391.441 -4.53377 377.456 2.39178 361.553C5.83871 354.655 13.6676 351.532 18.6359 346.133C26.4331 338.831 33.0734 326.345 23.4299 317.727C18.311 312.59 9.11922 311.971 2.12236 312.812C-16.3722 314.326 -34.9063 314.675 -53.3612 316.681C-59.0348 317.402 -64.6608 318.552 -70.0491 320.431C-71.7052 320.875 -73.8209 321.755 -75.0333 320.224C-77.0143 273.315 -75.2393 225.502 -75.6196 178.323C-75.5483 176.959 -75.3819 176.039 -75.065 176.016C-74.6608 175.881 -74.0032 177.649 -73.6545 178.513C-64.6766 202.011 -57.0142 226.461 -57.2757 251.481C-57.3232 257.261 -57.8224 263.318 -56.6497 268.986C-52.3153 292.992 -8.04408 290.836 -4.24058 269.097C-2.48939 256.928 -10.8888 246.36 -13.2184 234.96C-16.8555 211.287 15.9814 208.409 30.6011 218.803C41.4807 226.699 47.2177 240.129 44.6978 253.17C40.8309 269.002 21.3538 288.489 41.0369 301.673C71.0133 318.013 86.5601 277.477 107.471 264.126C117.503 257.285 128.985 252.964 139.254 246.527C147.194 241.516 154.009 235.531 162.274 230.758C182.971 218.216 197.892 228.11 216.711 238.464C234.699 247.375 262.805 239.526 264.366 218.081C266.608 188.851 229.762 195.526 210.356 193.306C202.416 191.546 192.028 187.479 189.667 179.551C186.584 170.387 192.377 161.19 201.267 157.829C211.561 152.113 224.033 151.78 234.493 146.817C246.838 140.197 248.486 122.756 238.534 112.719C221.545 95.6661 194.382 82.4027 192.099 55.9235C190.578 34.0424 200.768 -5.67643 222.448 -14.9125C239.318 -22.4123 259.572 -18.4087 273.304 -6.41373C294.992 9.87815 318.407 24.6241 340.84 40.1628C364.667 58.5952 397.314 49.0976 424.882 54.441C439.818 56.4071 468.986 74.348 450.024 89.6806C434.129 99.638 416.863 90.3624 400.389 87.6748C373.558 84.4561 371.252 119.172 386.569 133.522C398.899 147.317 421.094 142.449 434.755 133.038C440.373 129.439 445.08 124.651 451.268 121.892C466.15 113.219 495.484 120.385 491.8 140.998C490.302 154.317 474.89 164.132 461.918 166.233C449.169 168.714 435.634 167.168 423.178 171.647C412.536 174.747 404.113 182.009 394.771 187.662C371.751 200.759 347.409 211.85 325.301 226.39C310 234.5 294.826 242.999 279.73 251.458C269.041 255.969 261.188 271.388 272.409 279.578C281.894 285.365 294.184 283.724 304.857 283.304C315.531 281.449 327.433 280.815 335.84 288.394C347.211 297.971 344.224 317.378 330.087 322.492C321.244 325.259 311.767 325.179 302.655 324.371C292.979 323.586 284.2 319.233 274.358 321.35C263.978 323.269 253.938 331.902 256.212 343.081C259.532 354.679 269.627 363.075 275.697 373.302C287.005 389.181 279.707 408.922 264.342 418.594C252.678 427.576 238.027 431.921 227.385 442.053C217.432 451.154 224.817 463.862 235.554 467.43C248.264 471.56 262.52 470.181 275.071 475.358C280.776 477.38 286.307 480.138 291.244 483.643C299.295 489.929 306.949 497.524 317.71 498.365C338.265 503.074 359.319 484.927 339.794 467.501C327.441 458.059 307.908 458.281 298.986 444.407C293.241 434.371 303.542 423.922 313.281 420.885C335.119 413.449 356.839 429.487 371.958 443.274C392.005 462.198 401.3 491.634 378.471 512.31C368.202 522.727 351.276 524.567 337.48 528.856C304.517 541.675 332.488 567.79 356.997 566.315C371.141 565.855 385.436 565.871 397.401 573.513C416.189 584.597 409.129 601.919 389.565 606.137C374.771 609.665 357.789 605.011 343.93 612.352C332.251 617.617 325 633.544 336.831 642.193C343.162 648.052 352.694 649.225 361.11 648.48C380.333 647.203 401.664 645.832 418.067 635.256C431.435 627.035 442.346 612.987 459.058 612.178C483.654 608.927 496.078 632.569 475.096 648.321C461.015 657.692 442.853 670.821 457.378 688.08C472.774 707.202 519.28 716.311 525.215 684.885C525.508 667.467 508.139 654.624 530.548 641.844L530.69 641.773L530.667 641.852ZM341.743 110.816C341.965 105.592 342.163 99.9869 339.921 94.9526C334.406 82.2442 322.829 73.4442 311.141 66.5231C300.531 59.5386 291.482 50.6911 282.971 41.3599C277.956 35.8738 272.742 30.6731 264.794 28.2788C257.44 26.3127 247.876 25.2504 241.014 28.5722C229.469 34.5657 230.824 51.357 237.868 60.593C241.466 65.5797 246.299 69.6705 250.943 73.7137C264.279 85.3995 279.406 95.2222 292.504 107.249C301.046 115.383 303.463 129.376 296.204 138.81C293.035 142.909 288.043 146.127 283.693 149.251C279.374 151.954 274.295 155.514 271.941 159.668C268.368 165.305 268.962 172.884 272.242 178.584C276.395 185.918 285.539 189.152 293.407 190.579C307.441 193.164 321.561 188.676 334.2 182.715C339.271 180.281 344.818 178.085 349.24 174.517C356.276 168.952 358.138 160.596 354.018 152.279C346.965 139.579 340.864 125.776 341.743 110.959V110.808V110.816Z" fill="#20193F" fill-opacity="0.1"/>
</svg>
