<svg width="1298" height="768" viewBox="0 0 1298 768" fill="none" xmlns="http://www.w3.org/2000/svg">
<g clip-path="url(#clip0_23_303)">
<path d="M548.756 612.829C554.999 609.961 562.087 611.542 568.703 611.786C577.254 612.742 585.762 613.504 594.069 615.833C606.978 618.629 628.308 622.719 624.144 640.38C619.973 649.975 610.067 653.886 599.23 654.791C586.88 654.964 573.262 658.766 567.943 670.482C564.18 677.275 563.679 685.785 569.699 691.528C579.483 704.057 597.395 701.843 609.558 694.253C623.349 684.484 636.451 672.826 654.133 682.033C672.726 692.161 681.262 714.364 679.105 734.648C676.611 778.875 693.806 765.563 641.619 767.669C635.182 768.244 637.153 761.783 637.827 757.484C639.096 749.887 643.425 741.692 640.672 734.03C634.215 718.152 614.747 714.86 599.968 720.855C588.708 725.29 579.519 738.091 582.687 750.613C583.812 755.644 587.36 761.315 585.733 766.196C584.902 767.569 583.074 767.648 581.547 767.669C569.85 767.669 558.138 767.669 546.441 767.669C544.125 767.756 541.746 767.116 541.645 764.442C541.445 759.109 541.717 753.71 542.176 748.384C542.799 736.381 550.225 722.961 544.885 711.338C533.983 693.462 509.219 697.976 491.387 695.546C473.697 694.598 455.929 687.022 448.711 670.504C445.399 663.402 444.876 655.064 437.988 650.133C420.062 638.561 397.069 637.893 377.989 646.626C369.23 651.427 367.545 664.538 375.272 670.827C384.626 677.433 396.975 677.153 406.845 682.349C416.156 688.114 413.819 701.994 404.931 707.097C400.265 710.598 394.273 711.151 388.74 712.459C369.796 715.593 348.573 719.532 330.582 710.418C321.773 705.854 316.835 695.884 321.752 686.792C327.507 676.8 338.825 669.584 341.692 657.846C347.77 635.521 316.376 619.29 332.747 596.987C336.424 591.157 342.66 587.276 347.921 582.805C378.655 547.426 309.947 536.314 304.069 571.944C301.109 590.862 288.853 607.323 267.665 600.825C247.632 593.709 255.975 573.77 263.824 560.113C271.622 547.347 280.768 532.404 296.443 528.565C305.711 525.963 316.856 526.43 324.834 520.551C330.969 516.77 335.112 508.561 329.772 502.358C324.547 495.559 314.104 494.718 306.313 492.691C295.956 490.204 285.842 487.3 275.758 484.13C256.448 477.417 235.834 474.304 215.056 475.505C199.445 475.03 184.178 471.199 169.283 466.735C145.301 460.503 120.042 465.046 95.5149 463.975C75.3239 464.629 33.5299 457.197 34.0961 487.365C36.8771 505.888 59.6413 514.319 76.5137 514.65C102.202 513.377 122.322 493.043 148.462 493.23C157.142 493.999 170.445 500.49 170.323 510.092C168.23 522.513 157.78 532.353 146.799 537.572C130.844 545.299 111.269 539.75 94.748 544.551C89.9242 545.759 85.2653 547.433 80.7999 549.604C73.3672 553.062 67.1099 559.243 58.559 559.876C46.4601 561.665 38.2533 551.933 33.9384 541.82C30.1324 535.013 25.4664 528.659 20.1409 522.966C15.0447 517.029 8.74444 511.94 2.15745 507.189C0.881624 505.895 0.387062 504.17 0.372727 502.366C0.322554 488.701 0.308219 475.009 0.279549 461.337C-0.150505 455.731 5.45453 453.646 9.34651 450.98C32.2612 435.892 59.5553 429.452 87.6521 430.049C108.581 430.228 129.41 425.34 150.297 426.843C174.803 429.926 195.976 448.529 221.22 445.438C239.948 442.8 241.411 420.072 251.961 407.953C257.294 401.024 265.042 396.517 270.891 390.027C279.592 380.869 282.144 368.125 274.568 358.177C263.472 343.924 238.737 347.014 228.824 361.692C222.101 369.8 223.076 380.438 220.352 390.062C217.765 397.344 211.715 403.001 204.698 406.041C194.578 410.764 181.734 407.63 173.656 400.111C162.625 391.651 168.796 378.814 174.079 368.981C181.289 354.145 193.438 341.465 208.024 331.762C219.915 325.127 232.623 320.613 246.937 321.002C252.958 321.368 259.093 321.131 264.834 319.377C270.633 317.638 276.998 315.086 281.778 310.982C290.551 303.974 289.24 290.094 279.406 284.624C251.524 269.767 212.934 277.407 190.578 298.705C182.551 306.727 175.333 314.928 165.033 320.973C156.031 326.342 146.448 329.677 137.589 335.449C124.572 343.536 124.988 358.285 131.131 370.627C132.629 374.185 134.571 378.037 134.492 381.782C131.274 402.641 104.231 404.187 88.7416 393.398C77.3022 385.793 64.6442 373.114 70.9087 358.695C74.0266 352.441 81.1081 349.609 85.6022 344.714C92.6551 338.094 98.6615 326.773 89.9386 318.96C85.3083 314.303 76.994 313.742 70.665 314.504C53.9359 315.877 37.171 316.193 20.4777 318.011C15.3458 318.666 10.2568 319.708 5.38285 321.411C3.88483 321.814 1.97109 322.612 0.874457 321.224C-0.917434 278.694 0.6881 235.344 0.344057 192.569C0.408565 191.333 0.559084 190.499 0.845786 190.477C1.21133 190.355 1.80624 191.958 2.12161 192.742C10.2425 214.046 17.1735 236.214 16.937 258.899C16.894 264.138 16.4424 269.63 17.5032 274.769C21.4239 296.534 61.469 294.579 64.9094 274.87C66.4935 263.837 58.8959 254.255 56.7886 243.919C53.4987 222.456 83.2011 219.847 96.4252 229.27C106.266 236.429 111.456 248.606 109.176 260.43C105.679 274.784 88.0607 292.451 105.865 304.405C132.98 319.219 147.043 282.468 165.958 270.363C175.032 264.16 185.418 260.243 194.707 254.406C201.889 249.863 208.053 244.437 215.529 240.109C234.25 228.738 247.747 237.709 264.77 247.096C281.04 255.175 306.463 248.059 307.875 228.616C309.904 202.114 276.575 208.167 259.021 206.154C251.839 204.558 242.443 200.871 240.307 193.683C237.519 185.374 242.758 177.036 250.8 173.988C260.111 168.806 271.393 168.504 280.854 164.004C292.021 158.003 293.512 142.189 284.509 133.089C269.142 117.628 244.572 105.603 242.507 81.5957C241.131 61.7572 250.349 25.746 269.959 17.3722C285.219 10.5725 303.539 14.2024 315.96 25.0776C335.578 39.8486 356.758 53.218 377.05 67.3062C398.602 84.018 428.133 75.4069 453.069 80.2516C466.58 82.0341 492.963 98.3003 475.811 112.202C461.433 121.23 445.815 112.82 430.914 110.383C406.644 107.465 404.559 138.94 418.414 151.95C429.566 164.457 449.643 160.044 462 151.512C467.081 148.249 471.339 143.907 476.937 141.406C490.397 133.542 516.932 140.04 513.599 158.729C512.244 170.804 498.303 179.703 486.57 181.607C475.037 183.857 462.795 182.456 451.528 186.517C441.902 189.327 434.283 195.911 425.832 201.036C405.01 212.911 382.992 222.966 362.994 236.149C349.153 243.502 335.428 251.208 321.773 258.877C312.104 262.967 305.001 276.947 315.151 284.372C323.73 289.619 334.847 288.132 344.502 287.751C354.156 286.069 364.922 285.494 372.527 292.365C382.812 301.048 380.11 318.644 367.323 323.28C359.324 325.789 350.752 325.717 342.509 324.984C333.758 324.272 325.816 320.326 316.914 322.245C307.524 323.985 298.443 331.812 300.5 341.947C303.503 352.463 312.635 360.075 318.125 369.347C328.353 383.744 321.752 401.642 307.854 410.411C297.303 418.555 284.05 422.494 274.424 431.68C265.422 439.932 272.102 451.454 281.814 454.689C293.311 458.433 306.205 457.183 317.559 461.876C322.719 463.709 327.722 466.211 332.188 469.388C339.47 475.088 346.394 481.974 356.127 482.736C374.72 487.005 393.764 470.552 376.103 454.753C364.929 446.192 347.261 446.394 339.191 433.815C333.994 424.715 343.312 415.242 352.121 412.489C371.875 405.746 391.521 420.287 405.197 432.787C423.331 449.945 431.738 476.633 411.088 495.379C401.799 504.824 386.489 506.491 374.011 510.38C344.193 522.003 369.495 545.68 391.664 544.343C404.458 543.926 417.389 543.94 428.212 550.869C445.206 560.918 438.82 576.623 421.123 580.447C407.741 583.646 392.381 579.427 379.845 586.083C369.28 590.855 362.722 605.296 373.423 613.138C379.15 618.449 387.772 619.513 395.384 618.838C412.773 617.68 432.068 616.437 446.905 606.848C458.996 599.394 468.866 586.658 483.982 585.924C506.231 582.977 517.469 604.412 498.49 618.694C485.753 627.19 469.325 639.093 482.463 654.741C496.389 672.078 538.456 680.337 543.824 651.844C544.09 636.052 528.378 624.408 548.648 612.821L548.777 612.757L548.756 612.829ZM377.867 131.364C378.067 126.628 378.247 121.546 376.218 116.981C371.23 105.459 360.758 97.4809 350.186 91.2059C340.588 84.8734 332.403 76.8517 324.705 68.3916C320.168 63.4176 315.452 58.7024 308.263 56.5316C301.611 54.749 292.96 53.7859 286.753 56.7976C276.31 62.2316 277.535 77.4555 283.907 85.8293C287.161 90.3505 291.533 94.0594 295.734 97.7252C307.797 108.32 321.479 117.226 333.327 128.13C341.054 135.505 343.24 148.191 336.675 156.745C333.808 160.461 329.292 163.379 325.357 166.211C321.451 168.662 316.856 171.89 314.728 175.656C311.495 180.767 312.033 187.638 315 192.806C318.756 199.455 327.027 202.388 334.145 203.681C346.838 206.025 359.611 201.956 371.043 196.551C375.63 194.344 380.648 192.353 384.647 189.119C391.012 184.073 392.696 176.497 388.969 168.957C382.59 157.442 377.071 144.928 377.867 131.494V131.357V131.364Z" fill="#20193F" fill-opacity="0.1"/>
<path d="M584.981 373.272C599.43 380.999 595.381 401.204 579.218 403.403C575.225 404.122 570.28 403.791 566.058 403.489C558.848 403.065 551.809 403.856 544.792 405.524C511.42 411.26 495.235 447.759 465.562 445.689C455.305 444.726 449.119 436.209 445.643 427.253C441.758 418.649 435.738 411.77 428.907 405.495C419.159 397.214 406.422 391.565 392.947 388.532C383.214 386.239 372.821 386.303 364.062 380.876C350.365 372.258 353.877 354.641 367.667 348.761C384.977 340.876 406.673 346.461 420.578 358.206C434.483 368.528 448.618 379.331 459.735 391.91C467.956 402.792 489.989 406.674 499.12 396.187C514.323 373.487 485.896 352.053 467.992 341.746C452.352 333.322 432.161 330.181 421.037 315.172C416.134 309.35 415.081 301.753 412.185 294.917C404.831 280.512 389.829 262.119 403.777 246.945C414.285 235.409 437.343 234.683 446.998 248.059C455.613 259.078 451.592 273.741 453.857 286.486C456.015 299.273 471.066 312.922 486.097 313.857C498.934 314.604 514.093 309.494 519.541 297.627C528.529 272.412 495.945 257.339 480.635 242.827C471.583 235.933 464.58 220.501 476.32 212.702C495.558 201 508.918 211.394 523.189 224.447C530.708 231.484 538.241 238.507 549.308 238.78C561.234 240.153 579.261 234.316 578.745 219.976C576.573 201.46 553.321 201.331 542.412 191.016C533.654 181.356 539.445 165.852 550.763 161.697C567.764 154.466 584.579 166.456 602.025 166.046C610.461 165.96 619.858 164.285 624.66 156.544C639.074 130.128 605.953 113.855 583.332 120.877C569.398 124.637 555.386 130.646 540.635 128.597C529.711 126.944 521.992 120.611 519.569 110.642C518.193 105.287 519.225 99.4576 518.344 94.0595C514.043 70.7924 490.01 60.6791 468.945 55.0797C460.086 52.6143 450.847 52.2621 442.239 48.9557C429.559 44.492 424.413 34.9537 429.874 22.4181C432.978 13.728 435.092 4.88693 435.135 -4.12664C435.135 -5.42046 435.272 -7.1096 436.246 -7.8212C437.035 -8.43217 438.382 -8.58311 439.486 -8.56155C486.29 -6.92272 476.772 -16.9642 478.22 14.5187C479.66 29.6491 497.25 42.9682 513.018 43.7445C525.339 42.9179 537.424 30.181 535.058 18.2348C533.718 11.126 531.209 4.26877 529.805 -2.82564C529.41 -4.60104 528.959 -6.44832 529.59 -7.41868C530.306 -8.59749 531.898 -8.51123 533.209 -8.56155C546.175 -8.56155 559.149 -8.56155 572.115 -8.56155C574.874 -8.67656 576.838 -7.59838 576.516 -4.52916C576.25 2.60838 575.985 9.89687 575.204 16.8547C574.48 30.4254 566.725 41.6744 557.851 51.4786C545.43 63.4895 542.649 84.0612 563.17 88.3595C582.866 90.523 602.641 92.4997 622.46 92.5716C643.353 92.6147 663.723 84.6434 682.402 76.5427C703.016 65.8543 720.791 58.839 744.939 62.9504C750.809 63.5614 756.701 64.1292 762.607 64.4167C774.591 64.3089 792.245 65.4015 796.252 78.8284C800.394 96.5465 766.994 99.8529 754.938 100.32C740.23 99.3282 725.708 101.06 711.352 103.468C697.475 105.546 684.244 109.973 670.404 112.46C666.762 113.028 663.121 114.085 660.211 116.414C647.94 125.607 653.839 143.749 667.665 148.486C679.091 154.574 700.758 162.33 698.723 178.078C692.931 202.948 662.892 191.189 645.812 187.566C637.426 185.108 628.566 184.382 620.295 187.063C607.429 190.362 596.291 202.884 605.422 215.664C612.289 225.453 625.484 228.868 636.895 228.731C653.997 228.314 674.704 220.803 688.387 235.035C698.472 245.666 695.382 263.535 684.495 272.512C676.188 279.923 665.135 285.415 654.262 279.7C640.121 272.476 630.158 258.381 613.665 255.908C596.406 252.616 557.142 256.153 550.827 275.028C549.093 282.547 553.974 291.115 562.188 295.226C578.458 302.658 596.85 298.849 614.088 300.459C635.125 301.975 650.901 311.751 656.878 332.811C659.581 342.637 663.795 352.506 664.046 362.77C662.799 382.12 642.708 391.407 627.714 379.044C611.751 365.904 621.549 349.394 605.795 338.109C598.24 332.524 588.758 331.086 579.87 329.009C564.496 325.12 546.233 319.83 531.166 326.932C518.107 332.545 515.133 350.357 525.669 359.967C541.76 375.198 566.445 363.741 584.88 373.2L585.002 373.265L584.981 373.272Z" fill="#20193F" fill-opacity="0.1"/>
<path d="M1313.17 217.827C1329.75 216.505 1346.41 216.878 1362.76 219.761C1366.09 220.724 1370.47 220.415 1373.08 222.744C1375.01 246.147 1373.25 270.406 1373.73 294.062C1373.61 296.98 1370.97 296.448 1369.15 295.492C1364.54 293.235 1361.71 289.742 1359.58 285.716C1356.3 279.916 1356.2 272.778 1354.92 266.331C1352.57 253.565 1340.86 245.421 1326.51 247.125C1301.96 252.128 1277.81 259.244 1255.03 269.184C1249.76 272.124 1244.28 275.452 1240.34 280.182C1231.14 290.719 1235.55 307.69 1250.97 309.638C1261.33 310.838 1271.05 305.124 1279.8 300.329C1292.45 292.602 1309.56 290.353 1322.44 298.798C1330.44 304.211 1337.1 311.384 1345.95 315.517C1352.91 319.154 1360.23 321.792 1367.89 323.769C1369.87 324.322 1371.83 324.56 1372.92 325.961C1373.7 326.903 1373.81 328.463 1373.8 329.764C1373.38 354.569 1374.62 379.705 1373.35 404.366C1370.34 408.025 1356.51 394.081 1355.57 390.58C1351.93 383.816 1354.98 375.838 1353.57 368.621C1348.25 339.992 1309.61 330.993 1283.39 333.07C1271.13 333.048 1259 330.583 1246.73 332.042C1237.05 333.113 1227.78 338.72 1226.51 348.711C1225.32 364.158 1221.54 379.374 1220.24 394.835C1218.87 407.888 1222.64 416.492 1236.15 419.691C1251.16 424.075 1265.2 409.75 1265.27 395.899C1265.4 390.566 1262.45 385.419 1263.05 380.043C1264.04 371.266 1270.54 363.324 1279.19 361.282C1289.38 358.508 1299.69 363.23 1305.2 371.446C1310.61 378.605 1310.57 386.656 1310.72 394.886C1312.05 409.376 1325.03 418.72 1337.23 424.787C1343.55 427.705 1350.54 429.603 1357.12 431.184C1361.27 432.14 1365.51 432.83 1369.84 433.139C1372.51 433.075 1374.13 435.116 1373.79 437.754C1373.61 450.318 1374.16 463.005 1373.58 475.519C1372.14 479.242 1366.98 475.806 1364.56 474.757C1336.26 458.16 1278.97 417.47 1246.85 441.427C1223.89 461.524 1264.78 478.142 1282.43 478.861C1299.12 480.507 1330.06 476.036 1333.18 498.649C1333.32 513.385 1315.56 517.345 1305.18 523.404C1288.18 532.353 1273.8 543.157 1260.89 556.584C1254.69 562.808 1252.92 574.072 1258.62 581.044C1263.71 586.169 1272.38 586.284 1278.97 586.075C1283.49 585.738 1287.93 584.185 1291.84 581.77C1309.08 570.974 1326.17 560.17 1343.27 549.187C1350.81 543.904 1356.17 537.593 1358.99 529.608C1361.11 523.174 1362.58 516.087 1367.19 510.933C1368.58 509.417 1371.13 506.923 1372.85 507.634C1373.84 508.202 1373.75 509.726 1373.79 510.898C1373.79 531.764 1373.79 552.637 1373.79 573.504C1374.4 578.183 1369.91 579.254 1366.37 580.469C1341.55 591.107 1316.33 600.645 1293.16 614.079C1285.62 619.722 1281.94 629.109 1284.89 638.123C1289.94 653.052 1311.83 655.373 1324.94 651.93C1341.8 647.337 1351.81 631.984 1362.25 619.298C1364.42 616.803 1373.73 605.209 1373.79 614.395C1373.79 631.725 1373.79 649.055 1373.79 666.385C1373.91 668.628 1373.08 670.777 1370.69 671.287C1348.4 678.554 1325.2 682.601 1301.76 684.405C1273.03 688.287 1251.36 667.018 1249.79 640.135C1249.11 627.391 1253.76 615.409 1244.37 604.527C1224.15 582.51 1198.69 604.167 1175.29 603.772C1167.55 603.671 1158.01 602.162 1152.57 596.253C1144.25 587.197 1145.58 572.965 1158.29 567.955C1171.75 561.68 1186.22 565.669 1200.27 565.489C1223.53 564.382 1230.4 539.218 1245.89 525.683C1249.24 522.204 1253.69 519.027 1256.11 514.779C1260.4 507.756 1256.76 498.865 1250.54 494.308C1242.39 488.076 1230.3 487.343 1220.84 491.361C1207.96 496.687 1202.81 508.792 1194.42 518.754C1188.6 526.186 1181.06 532.073 1172.04 535.121C1162.21 538.858 1150.04 539.412 1141.53 532.691C1132.53 526.646 1131.89 516.612 1137.3 507.721C1152.26 478.107 1198.75 486.416 1204.12 457.211C1206.55 445.531 1198.1 436.094 1193.02 426.505C1186.3 413.862 1182.18 400.154 1181.81 385.735C1180.45 365.264 1189.03 346.073 1194.45 326.68C1195.31 322.597 1195.52 318.392 1195.05 314.223C1190.97 283.294 1215.88 259.646 1233.99 237.421C1241.83 225.231 1256.58 223.161 1269.99 223.089C1284.46 222.621 1298.69 219.516 1313.03 217.863L1313.16 217.849L1313.17 217.827Z" fill="#20193F" fill-opacity="0.1"/>
<path d="M1058.74 -7.71334C1059.4 -8.37462 1060.71 -8.53994 1061.72 -8.52556C1070.28 -8.53275 1078.88 -8.52556 1087.44 -8.52556C1091.5 -8.71245 1091.51 -6.00262 1090.9 -2.229C1088.09 19.3058 1099.8 36.3554 1125.03 35.2988C1139.95 35.6654 1161.57 33.545 1167.77 50.5011C1171.95 68.5354 1144.27 71.6622 1132.07 67.5938C1113.24 62.0161 1093.84 55.9064 1076.79 69.7214C1068.86 75.903 1064.45 85.2831 1057 92.1475C1045.77 103.231 1028.5 106.868 1014.04 100.119C1000.25 94.6992 986.837 84.8016 971.298 89.1215C960.432 91.1772 949.609 99.8314 949.358 110.872C948.598 121.531 957.593 132.083 952.992 142.621C948.684 152.727 936.42 158.096 926.013 155.027C913.183 150.57 904.138 139.494 893.085 132.184C881.115 123.781 864.609 124.018 852.374 131.904C827.165 152.612 897.149 164.019 861.283 206.363C855.219 213.931 845.959 219.107 842.368 228.48C838.633 238.104 844.167 247.046 854.409 249.892C868.888 254.162 885.61 248.8 895.15 238.636C909.277 223.728 906.747 214.564 907.069 196.271C907.693 186.653 913.563 177.87 923.935 175.872C939.983 173.133 952.841 177.273 953.35 195.588C956.475 217.957 951.085 240.749 930.837 253.436C914.739 264.354 897.751 273.087 879.818 281.318C859.455 292.279 834.505 287.808 821.216 269.077C815.41 260.588 808.995 251.639 799.255 247.635C788.539 242.05 772.541 244.731 760.077 246.873C741.477 249.619 728.726 243.114 719.15 227.164C711.438 214.506 723.888 199.398 737.32 198.075C747.72 197.04 757.403 201.856 766.614 205.795C781.042 212.997 801.763 224.785 815.382 210.474C823.897 200.224 828.62 186.179 826.606 173.147C824.843 155.437 811.045 145.467 793.786 152.173C784.719 156.076 779.114 163.084 770.154 167.289C756.823 174.434 740.76 173.751 728.855 164.608C718.326 156.896 718.175 145.144 726.583 137.733C734.116 131.242 744.265 128.662 754.035 127.936C775.58 128.619 793.879 128.015 812.393 115.889C863.311 75.8455 892.447 122.854 918.939 90.6237C926.68 80.9704 934.048 70.9074 943.459 62.4905C957.271 51.5002 962.647 35.6654 963.801 19.3202C964.833 11.3632 965.951 3.42065 967.592 -4.44286C967.836 -5.55698 968.173 -6.73579 968.997 -7.50489C969.864 -8.35305 971.362 -8.53275 972.631 -8.51837C985.361 -8.51837 998.112 -8.51837 1010.84 -8.51837C1016.77 -8.92089 1014.22 -1.72585 1014.08 1.87527C1011.95 23.906 997.968 30.1882 993.897 49.7823C990.837 62.512 1004.58 69.5849 1016.6 69.6567C1027.63 69.3477 1038.56 64.1221 1046.49 56.6395C1056.16 47.8847 1058.41 36.8657 1057.71 24.9842C1057.79 15.1656 1057.8 5.33262 1057.84 -4.48599C1057.85 -5.57135 1057.95 -6.92986 1058.66 -7.62708L1058.73 -7.69896L1058.74 -7.71334Z" fill="#20193F" fill-opacity="0.1"/>
<path d="M1180 148.428C1161.07 134.506 1171.17 108.5 1186.27 94.3111C1192.7 87.7845 1199.63 81.5886 1203.06 72.8409C1210.43 54.0088 1193.88 44.183 1201.03 24.3229C1204.89 14.5474 1208.97 5.95794 1207.97 -4.80947C1207.69 -7.46897 1208.98 -8.94248 1211.73 -8.66934C1221.93 -8.42496 1232.3 -9.16531 1242.45 -8.37464C1244.56 -7.72774 1245.29 -5.52106 1246.64 -3.93974C1250.58 0.631741 1256.04 3.57876 1262.37 3.44219C1271.1 3.14749 1278.84 -1.66837 1284.81 -7.53366C1311.96 -10.6532 1340.54 -7.63429 1368.18 -8.71247C1369.63 -8.6981 1371.35 -8.72685 1372.54 -7.88587C1373.76 -7.00176 1373.81 -5.09698 1373.81 -3.60191C1373.68 17.6598 1373.84 38.9215 1373.71 60.1759C1373.43 65.0421 1366.06 62.4185 1362.93 62.5192C1356.22 62.0663 1350.47 58.6306 1345.81 53.9225C1340.45 49.4517 1344.23 42.1272 1347.97 37.4408C1353.97 30.447 1366.2 20.7649 1358.17 11.0182C1351.37 3.55001 1340.4 4.58506 1331.4 6.4539C1319.89 9.67406 1313.95 19.5286 1305.84 27.1406C1292.66 38.9143 1275.32 32.057 1259.99 30.0229C1248.96 28.8081 1234.12 34.8603 1234.91 47.5828C1235.27 53.7141 1238.38 59.22 1243.51 62.4617C1249.84 66.9325 1258.77 68.9667 1266.67 68.4635C1279.14 68.2407 1291.12 69.7933 1302.34 73.4735C1319.9 80.956 1337.92 86.9651 1357.2 85.7216C1361.46 85.6138 1365.77 85.2759 1370.09 84.8015C1372.7 84.435 1373.82 85.5922 1373.75 87.957C1373.72 123.192 1373.84 158.477 1373.71 193.726C1373.6 195.48 1372.6 196.393 1371.01 196.314C1360.37 195.099 1346.51 186.172 1344.41 175.117C1341.76 157.198 1371.71 139.587 1352.45 117.513C1337.29 100.866 1305.11 111.433 1302.25 132.867C1299.77 144.389 1305.47 155.235 1307.13 166.412C1309.13 179.487 1300.09 189.766 1286.76 191.944C1273.1 194.84 1250.24 195.365 1239.44 185.432C1232.58 177.971 1233.28 168.274 1240.96 161.999C1248.7 154.905 1258.69 148.637 1264.48 139.817C1271.17 129.625 1280 114.883 1271.71 103.325C1264.34 94.0164 1251.51 89.2508 1239.94 91.8025C1231.22 93.8079 1223.17 100.234 1221.07 109.147C1218.83 118.383 1221.42 128.698 1217.54 137.582C1211.52 151.483 1192.95 155.832 1180.13 148.508L1180 148.428Z" fill="#20193F" fill-opacity="0.1"/>
<path d="M42.1596 728.524C33.9169 721.401 26.0469 715.14 32.6626 703.467C39.866 692.333 57.6559 691.212 67.7549 698.177C83.0505 710.13 100.095 716.628 120.006 716.636C127.984 717.254 137.259 720.898 139.517 729.221C141.136 734.785 139.373 741.319 135.001 745.243C128.909 750.792 120.236 752.747 113.771 757.944C111.699 759.655 109.47 761.416 107.943 763.601C106.99 764.995 107.198 766.9 105.506 767.454C93.1711 768.014 80.6207 767.482 68.2137 767.655C64.4149 767.77 64.035 766.059 64.7446 762.71C66.0777 754.336 61.684 745.437 55.2189 740.147C50.6101 736.646 46.6895 732.377 42.2599 728.603L42.1524 728.51L42.1596 728.524Z" fill="#20193F" fill-opacity="0.1"/>
<path d="M872.335 -7.79968C872.923 -8.35314 873.869 -8.4969 874.722 -8.51846C879.976 -8.54721 885.308 -8.51846 890.591 -8.53284C899.077 -8.53284 907.585 -8.53284 916.064 -8.53284C917.082 -8.53284 918.286 -8.38189 918.939 -7.66311C919.584 -7.03776 919.734 -5.72239 919.749 -4.68015C919.885 1.35765 919.799 7.37389 918.666 13.3254C912.574 39.3311 892.584 59.723 864.874 68.7438C854.323 72.3952 840.533 75.2344 830.204 69.1894C824.434 65.7824 820.858 60.2477 821.876 53.9368C822.521 50.1057 825.266 46.483 827.868 43.4857C834.555 36.0319 843.916 32.1648 853.191 27.8736C863.412 23.4244 871.704 14.2095 871.934 2.58678C871.984 0.725122 871.819 -1.12935 871.69 -2.98381C871.647 -4.53639 871.203 -6.56336 872.256 -7.74217L872.328 -7.81405L872.335 -7.79968Z" fill="#20193F" fill-opacity="0.1"/>
<path d="M638.608 -7.97211C638.909 -8.51839 640.156 -8.51839 640.88 -8.52558C650.277 -8.52558 659.695 -8.52558 669.099 -8.52558C673.443 -8.52558 677.8 -8.53996 682.13 -8.51839C684.459 -8.60465 686.416 -7.28208 687.634 -5.34136C694.157 3.35595 703.432 14.8637 698.472 26.0336C695.067 32.9915 687.677 36.7795 680.847 39.7696C668.475 45.333 656.592 51.7805 643.733 56.5029C632.709 60.4563 619.227 64.4815 607.831 59.8381C599.409 56.1723 594.764 47.0365 600.957 39.2737C608.712 28.6428 622.94 25.5377 634.96 21.2896C644.22 17.7388 649.317 9.73876 644.242 0.243605C643.267 -1.54617 642.027 -3.15625 640.701 -4.70883C639.963 -5.73669 638.494 -6.76455 638.58 -7.90742L638.601 -7.95774L638.608 -7.97211Z" fill="#20193F" fill-opacity="0.1"/>
<path d="M419.933 732.399C419.976 729.574 420.829 726.454 422.456 724.248C424.793 721.516 427.674 719.324 431.043 717.879C445.213 712 467.067 717.29 479.302 724.959C489.308 731.055 496.153 739.946 497.988 750.821C498.662 755.486 498.253 760.223 498.26 764.902C498.253 766.987 496.805 767.734 494.813 767.648C479.847 767.648 464.867 767.648 449.901 767.648C447.657 767.82 445.636 766.915 444.697 764.794C442.418 760.453 438.956 756.766 434.469 753.675C431.874 752.043 429.702 749.973 427.445 747.889C422.779 743.626 420.363 738.429 419.94 732.535V732.399H419.933Z" fill="#20193F" fill-opacity="0.1"/>
<path d="M804.38 -7.75649C805.032 -7.05208 805.068 -5.90921 805.06 -4.95322C805.032 -1.09335 805.01 2.78809 804.681 6.61922C804.172 12.8798 802.724 19.3561 799.441 24.7757C794.338 33.8468 782.683 37.7355 771.767 37.8217C755.174 37.872 742.674 29.2394 737.908 14.9212C736.094 8.73964 736.187 1.5446 735.979 -4.95322C735.886 -6.4483 736.187 -8.17338 737.958 -8.41058C751.153 -8.7556 764.435 -8.42496 777.645 -8.53278C785.644 -8.53278 793.657 -8.53278 801.649 -8.53278C802.58 -8.53278 803.677 -8.43933 804.315 -7.82837L804.387 -7.75649H804.38Z" fill="#20193F" fill-opacity="0.1"/>
<path d="M798.588 767.087C798.28 767.605 796.653 767.677 795.8 767.655C773.079 767.655 750.358 767.655 727.636 767.655C725.773 767.705 723.909 767.339 722.727 765.829C717.537 758.491 711.76 747.349 715.358 738.796C717.423 733.347 723.701 728.941 729.149 727.051C736.84 724.248 745.785 725.081 752.372 730.048C756.873 733.448 759.855 738.429 763.639 742.49C769.932 749.448 777.623 754.839 785.78 759.432C788.991 761.236 792.36 762.969 795.743 764.543C797.262 765.319 798.903 766.16 798.61 767.037L798.581 767.087H798.588Z" fill="#20193F" fill-opacity="0.1"/>
<path d="M390.998 -7.81403C391.786 -7.16712 392.116 -6.06738 392.41 -5.08983C395.04 3.27684 399.326 11.9166 397.721 20.8799C395.578 30.5691 384.275 34.7309 375.329 32.9052C367.524 31.1442 360.571 25.9905 355.955 19.6076C351.024 12.3192 350.092 3.17621 347.921 -5.18327C347.254 -7.67746 348.229 -8.64063 350.759 -8.53281C354.916 -8.53281 359.081 -8.53281 363.238 -8.53281C371.638 -8.53281 380.081 -8.54719 388.475 -8.52562C389.335 -8.50406 390.259 -8.37468 390.919 -7.87153L391.005 -7.80684L390.998 -7.81403Z" fill="#20193F" fill-opacity="0.1"/>
<path d="M107.65 -7.81403C108.151 -7.10243 107.936 -5.98832 107.829 -5.12577C107.277 -1.1437 107.657 2.89587 107.241 6.89232C106.682 12.4557 104.266 17.4728 100.432 21.4477C94.5975 27.9168 85.3728 28.0102 77.1444 26.6517C68.7512 24.3876 62.3004 16.4665 60.272 8.86179C58.8385 3.78717 58.8815 -1.70435 59.2829 -6.90836C59.5696 -8.11592 60.7809 -8.49688 61.9349 -8.51844C66.6798 -8.55438 71.5036 -8.51844 76.2772 -8.53282C85.9821 -8.53282 95.7299 -8.54 105.42 -8.53282C106.187 -8.51844 107.119 -8.43937 107.585 -7.8931L107.642 -7.82122L107.65 -7.81403Z" fill="#20193F" fill-opacity="0.1"/>
<path d="M3.26124 -8.0081C4.01383 -7.49776 4.5299 -6.48427 4.93128 -5.59298C8.22836 1.64519 14.328 7.92738 20.0548 13.958C25.28 19.3345 31.5659 24.7829 32.7056 32.5961C35.5009 47.2881 19.3596 58.3861 3.12506 54.3609C1.78472 53.9512 0.75976 52.9521 0.630744 51.5433C0.365544 32.5817 0.652246 13.5627 0.329706 -5.38453C0.20069 -7.15274 1.29016 -9.29472 3.17523 -8.07279L3.26841 -8.0081H3.26124Z" fill="#20193F" fill-opacity="0.1"/>
<path d="M335.291 766.936C334.854 766.426 334.79 765.556 334.833 764.528C334.904 762.739 334.833 760.891 335.184 759.109C337.255 748.269 350.823 743.339 361.474 742.613C373.688 741.829 391.535 752.453 394.474 764.334C395.119 766.627 394.073 767.741 391.693 767.641C373.846 767.641 355.984 767.641 338.137 767.641C337.212 767.655 335.893 767.619 335.363 766.994L335.299 766.922L335.291 766.936Z" fill="#20193F" fill-opacity="0.1"/>
<path d="M222.345 767.044C221.958 767.633 220.474 767.655 219.6 767.648C197.481 767.648 175.347 767.648 153.235 767.648C151.615 767.691 149.487 767.375 150.132 765.427C151.486 761.207 155.156 757.808 159.027 755.047C173.376 745.365 195.796 748.772 210.103 755.896C214.267 757.973 218.675 760.51 221.463 764.313C222.245 765.369 222.775 766.433 222.395 766.994L222.352 767.051L222.345 767.044Z" fill="#20193F" fill-opacity="0.1"/>
<path d="M1138.87 459.885C1128.52 459.131 1121.19 451.245 1115.5 443.195C1083.28 397.099 1050.33 446.128 1010.01 413.121C1006.15 410.598 1002.54 407.378 998.778 404.603C989.009 397.646 976.05 399.68 967.098 406.968C947.673 424.557 972.746 454.66 992.105 459.95C999.273 462.229 1007.84 462.329 1015.39 461.56C1024.64 460.812 1033.84 460.007 1043.15 459.504C1063.05 458.412 1082.45 461.007 1099.15 471.645C1104.54 474.98 1109.82 480.126 1110.57 486.495C1111.7 496.22 1102.97 509.309 1092.16 514.11C1084.26 517.525 1074.82 517.877 1068.07 512.659C1063.61 509.783 1060.89 505.205 1057.54 501.33C1053.34 496.802 1048.51 492.791 1043.32 489.435C1033.91 483.188 1018.94 487.343 1014.14 497.679C1011.4 503.422 1015.54 513.219 1017.63 519.049C1022.71 528.436 1026.36 537.349 1023.96 548.181C1022.96 554.413 1020 560.875 1021.19 567.229C1024.98 589.763 1053.04 589.533 1061.99 570.765C1068.98 554.312 1073.49 537.636 1095.4 540.468C1104.64 541.029 1114.39 545.234 1117.14 554.679C1122.65 569.241 1114.03 582.596 1100.77 589.403C1081.72 598.287 1062.27 604.555 1058.2 627.844C1057.16 635.966 1056.28 644.189 1054.63 652.232C1053.09 661.26 1050.03 670.101 1048.23 679.122C1044.86 699.694 1055.43 710.964 1069.76 723.723C1082.28 738.501 1078.3 752.568 1057.62 753.308C1044.19 754.056 1030.28 755.464 1017.15 752.395C1003.51 750.088 991.489 739.694 998.054 726.914C1000.77 721.502 1004.93 717.067 1008.71 712.387C1015.11 705.696 1020.13 695.64 1015.69 686.842C1005.62 668.11 972.86 669.232 961.055 685.994C950.662 701.807 964.926 720.15 961.163 737.063C958.346 752.704 944.943 757.455 930.486 757.053C914.846 757.161 898.999 745.638 907.75 728.927C914.101 715.241 918.953 701.297 920.924 686.482C921.763 680.243 922.178 673.968 922.63 667.701C922.544 658.91 926.629 651.794 934.535 647.862C947.279 641.055 963.184 642.982 977.103 645.339C984.156 646.547 991.331 648.782 998.549 648.15C1016.75 646.978 1034.08 632.236 1025.08 613.13C1013.31 588.426 988.457 597.54 970.61 609.4C955.794 617.86 934.521 622.776 918.487 613.267C912.531 609.227 909.306 602.226 911.542 595.398C915.455 584.904 926.386 579.685 936.893 577.558C946.871 575.358 956.798 576.551 966.739 574.747C976.222 573.274 985.396 566.036 986.823 556.203C986.02 549.252 983.461 542.582 982.422 535.602C979.411 520.889 979.963 505.09 971.305 492.087C967.585 486.552 962.381 482.297 957.063 478.265C941.072 466.527 925.755 453.222 918.709 436.122C911.047 418.915 916.029 403.978 931.668 393.692C938.886 388.575 947.86 385.326 955.508 380.639C965.284 374.594 973.211 367.406 978.802 357.882C981.038 353.627 982.522 349.164 984.816 344.98C991.704 331.884 981.641 315.014 967.786 311.492C957.393 309.4 946.054 314.108 938.356 321.023C926.092 331.561 931.776 346.195 926.106 358.917C921.447 368.736 906.596 378.634 895.537 376.873C883.266 374.307 876.586 364.28 881.022 351.938C882.965 345.038 885.201 338.231 886.971 331.338C889.236 319.391 892.705 311.643 903.22 304.692C915.427 297.059 928.715 290.978 941.373 284.193C951.845 278.263 963.256 271.103 975.785 272.261C996.506 274.561 999.567 295.729 1013.45 307.237C1029.36 321.785 1046.34 314.683 1065.62 313.864C1076.22 312.994 1086.6 315.611 1097.12 315.992C1109.98 316.373 1122.9 314.037 1135.65 316.387C1147.66 318.673 1158.18 328.829 1154.85 341.458C1153 349.336 1147.42 356.114 1139.5 359.14C1118.38 367.543 1093.42 349.473 1071.07 347.403C1055.87 346.022 1031.73 344.93 1018.53 352.7C1011.51 357.02 1007.72 365.566 1010.59 373.2C1015.54 385.369 1031.24 388.186 1043 388.409C1062.91 389.006 1082.77 388.812 1102.69 388.481C1107.8 388.495 1112.9 388.783 1117.91 389.674C1136.97 393.692 1140.8 397.344 1149.4 414.631C1152.59 421.301 1156.62 427.827 1157.73 435.26C1161.08 449.384 1154.35 460.36 1139.01 459.885H1138.87Z" fill="#20193F" fill-opacity="0.1"/>
<path d="M760.987 442.016C763.983 444.108 766.793 446.286 770.083 447.896C776.075 450.944 783.035 452.719 789.077 455.939C798.904 460.741 814.206 472.392 803.383 483.814C801.168 486.143 797.664 488.069 794.689 489.492C780.54 496.321 766.012 502.639 751.469 508.878C741.771 514.067 723.429 510.244 723.63 497.284C724.497 489.298 730.855 483.469 734.116 476.288C740.445 464.342 734.56 449.786 722.447 444.511C713.122 440.514 700.221 440.414 692.673 445.919C686.76 450.57 684.079 458.685 683.699 465.995C682.94 477.316 689.699 487.832 689.663 499.038C689.605 518.064 667.644 523.419 652.277 519.408C634.372 515.951 599.452 511.02 600.964 538.542C601.638 545.184 608.633 549.072 614.633 550.833C625.807 554.176 639.268 558.222 643.353 570.061C648.191 585.155 631.957 593.802 618.89 591.646C606.698 590.561 597.947 581.612 585.905 580.016C579.512 578.83 572.76 578.952 566.374 580.016C554.999 582.172 540.37 585.198 530.794 577.292C521.39 569.939 525.963 558.072 535.152 551.912C548.849 542.488 575.182 539.232 575.197 518.38C575.046 510.898 572.373 503.523 565.542 499.174C551.221 491.426 534.213 490.729 518.609 494.977C506.632 497.823 495.243 505.96 497.457 518.855C497.981 528.752 505.908 539.153 500.095 548.612C494.705 557.051 483.653 561.227 474.199 556.792C461.44 551.2 451.972 539.412 448.56 526.258C442.912 507.879 451.642 490.7 466.594 479.968C476.736 472.55 490.06 469.359 503.191 467.936C522.171 465.83 539.524 461.237 553.966 449.456C560.589 444.489 564.689 436.791 571.477 431.925C576.594 428.223 582.859 425.146 589.202 422.954C594.628 421.157 600.269 422.027 605.193 424.801C616.095 430.667 616.274 439.141 609.006 448.198C604.154 454.495 596.771 459.016 592.234 465.6C585.597 475.045 587.081 483.972 597.904 489.047C606.175 493.309 615.973 494.107 625.011 491.879C641.031 487.983 656.083 475.073 652.735 458.146C650.392 441.147 627.448 412.374 652.721 403.259C669.909 398.372 681.793 414.264 697.268 417.7C715.989 420.956 727.242 405.286 719.057 388.948C710.8 374.494 702.299 372.251 698.708 353.57C694.537 337.038 692.996 318.809 701.03 303.233C714.735 274.949 750.343 268.164 777.451 285.019C794.868 296.426 811.561 307.841 832.405 313.109C836.956 314.173 841.479 315.834 845.12 318.874C862.974 332.675 852.782 355.741 830.247 357.423C812.25 358.472 795.112 346.274 785.364 333.192C780.748 327.334 776.139 321.613 770.061 317.106C762.75 311.025 752.264 309.336 743.355 313.713C729.543 320.542 729.557 337.124 736.675 348.567C741.133 356.754 746.172 364.416 753.913 370.023C759.625 374.328 767.223 376.952 774.319 378.289C796.295 382.537 818.062 386.907 840.569 388.74C854.918 389.207 870.751 393.7 875.761 408.722C880.664 422.681 883.538 439.537 873.805 452.115C864.716 464.917 839.472 465.449 832.935 450.153C830.426 442.548 827.875 434.908 822.478 428.791C811.117 414.616 779.881 402.799 761.489 407.17C754.988 408.823 748.551 413.552 748.688 420.489C748.301 429.014 753.268 437.035 760.88 441.937L761.001 442.024L760.987 442.016Z" fill="#20193F" fill-opacity="0.1"/>
<path d="M805.634 738.537C787.005 719.892 771.91 698.271 743.964 693.57C740.244 692.858 736.216 692.606 732.396 692.283C722.97 691.428 714.427 688.61 706.55 683.952C692.279 675.722 680.381 666.076 669.235 654.921C655.71 642.004 651.08 625.838 664.11 609.321C666.031 606.819 668.196 604.376 669.837 601.738C672.26 597.914 674.002 593.867 675.457 589.691C677.636 583.61 678.417 577.22 678.646 570.859C678.911 566.115 678.539 560.954 679.377 556.411C680.768 547.98 687.806 542.589 695.698 540.447C710.492 535.933 725.845 541.058 740.975 540.102C762.75 539.491 783.085 532.986 799.642 519.401C807.239 514.19 815.984 509.906 825.545 511.997C832.928 513.535 839.042 518.675 841.687 525.683C846.632 537.104 852.51 548.26 860.803 558.416C869.146 567.602 873.898 577.838 874.134 590.345C874.306 594.471 874.471 598.611 875.073 602.701C878.019 620.757 889.616 637.849 886.104 656.847C880.628 680.653 873.977 704.186 870.615 728.287C870.049 732.269 868.787 736.23 866.608 739.522C858.129 753.236 835.193 756.341 821.374 749.247C815.633 746.63 810.63 742.447 805.727 738.63L805.634 738.544V738.537ZM842.081 655.309C842.296 640.581 841.859 627.837 838.841 614.82C836.368 603.491 832.663 592.357 830.921 580.871C830.147 576.386 829.272 571.815 827.316 567.667C820.829 553.895 803.082 554.125 790.08 558.912C776.182 563.29 761.847 567.092 746.975 568.249C742.488 568.738 737.922 569.658 734.094 570.981C716.512 576.997 711.932 588.979 707.961 605.799C705.725 615.136 701.009 624.717 704.27 634.385C707.331 644.879 713.387 653.936 724.196 660.527C731.528 665.041 739.785 667.535 748.444 663.654C756.228 660.304 760.915 654.245 759.023 645.469C758.45 642.047 757.518 638.705 756.257 635.42C754.25 630.173 751.218 624.962 750.286 619.427C748.301 601.853 763.345 591.013 782.167 594.075C784.619 594.392 787.278 595.017 789.285 596.275C792.56 598.223 793.793 601.817 795.413 605.087C804.308 623.28 798.137 643.794 792.36 662.202C789.686 669.993 789.722 678.784 793.456 686.101C801.556 702.382 829.165 716.887 841.658 696.33C845.572 690.278 844.862 684.829 843.507 677.979C842.325 670.446 841.859 662.612 842.059 655.438V655.302L842.081 655.309Z" fill="#20193F" fill-opacity="0.1"/>
<path d="M1.11814 153.747C0.59491 153.359 0.465894 152.181 0.494564 151.39C0.480229 144.396 0.473061 137.352 0.465894 130.344C0.215029 126.973 2.45131 125.715 5.42585 125.068C16.0267 121.891 23.5813 116.55 27.2224 106.689C32.2827 92.5932 36.5331 79.0513 47.8865 67.8095C50.0296 65.6244 52.5382 63.8346 54.6598 61.6926C56.3944 59.9891 58.4873 59.2703 60.7523 58.0987C74.7433 50.3717 92.2824 46.2028 106.395 55.4895C113.384 59.7303 118.465 68.5642 113.455 76.018C108.015 83.9534 92.7626 87.497 83.8175 91.1053C77.1875 93.1467 69.4608 97.1503 69.511 105.079C68.7154 114.02 76.4277 120.762 84.6202 123.07C93.5654 126.081 103.091 124.227 111.871 121.445C123.275 118.139 134.32 114.912 144.978 109.765C156.998 104.008 163.42 93.7073 159.471 80.7332C157.665 73.2866 154.705 66.2641 150.978 59.4069C145.996 49.7823 137.373 38.713 140.434 27.3994C141.961 21.8 146.598 17.552 152.11 15.3166C169.757 9.40816 195.667 8.28685 212.726 16.4451C222.058 21.6131 221.628 30.4326 214.826 38.0014C211.336 42.386 207.501 46.2459 203.602 50.343C193.818 60.8876 189.847 73.1788 192.915 86.4117C195.094 97.0784 202.261 106.976 212.267 113.33C217.786 117.097 222.639 121.294 227.971 125.269C234.946 129.956 237.404 139.609 233.268 147.034C229.563 152.978 218.016 154.028 211.508 153.819C196.363 153.74 186.536 141.902 172.186 138.452C157.421 134.484 141.488 137.575 128.808 145.855C124.329 148.831 118.465 152.748 117.354 158.341C116.387 162.121 119.612 167.376 123.103 170.732C127.618 175.433 133.259 178.201 139.767 179.768C150.311 182.219 161.385 181.629 171.892 179.717C180.3 178.1 189.374 176.483 197.653 179.264C203 181.658 209.149 187.681 210.554 193.597C211.336 198.061 207.229 201.827 204.648 205.09C194.563 215.462 182.909 223.923 169.95 231.067C159.242 237.68 152.246 240.462 142.018 230.916C136.191 225.964 135.187 217.971 132.134 211.308C126.149 197.112 110.803 188.048 94.8842 192.123C85.1578 194.754 76.5782 200.124 67.0382 203.372C52.7389 208.26 40.2745 203.027 37.1495 190.549C35.7733 185.748 38.54 181.248 42.3101 178.459C46.5461 175.038 51.6208 172.314 57.0538 170.891C64.6801 169.288 72.7364 167.548 78.1623 161.625C87.8743 150.7 77.4813 140.824 66.8949 137.33C55.011 133.887 40.1527 138.538 28.4409 141.514C19.4743 144.137 11.1026 148.299 3.56945 153.022C2.83836 153.438 1.8134 154.1 1.17548 153.776L1.11814 153.74V153.747Z" fill="#20193F" fill-opacity="0.1"/>
<path d="M219.456 655.97C215.873 654.992 212.217 653.871 208.44 653.85C202.462 653.641 196.305 653.828 190.786 655.74C187.138 657.206 183.454 658.558 179.762 660.038C164.288 667.636 151.68 680.128 134.829 684.987C110.079 692.42 96.7191 674.939 77.6964 664.186C71.5968 660.858 64.8234 658.694 57.8996 658.141C53.1976 657.896 48.5817 659.032 43.9085 659.399C38.9629 660.161 33.9742 661.26 29.172 662.784C23.3519 665.012 17.8831 668.003 12.7941 671.711C9.21749 674.385 5.95624 677.512 3.05338 680.739C2.6305 681.171 2.18611 681.681 1.74889 681.947C1.40484 682.163 1.13964 682.177 0.960454 681.961C0.752595 681.724 0.652249 681.199 0.609243 680.495C0.537568 668.958 0.645081 657.422 0.458725 645.871C0.44439 644.376 0.551903 642.68 1.3045 641.436C2.30079 639.833 4.25036 639.258 5.97775 638.762C13.174 636.965 20.1623 635.226 27.3514 633.486C33.7592 631.876 40.5684 630.539 46.0803 626.794C49.2985 624.099 52.7604 621.813 55.8353 618.917C57.2115 617.522 58.4371 615.998 59.6126 614.431C65.0743 606.92 70.0701 598.985 76.5782 592.293C87.8098 580.124 105.557 570.097 123.748 572.109C137.173 573.439 145.838 586.938 137.624 598.374C134.585 603.542 129.948 606.762 124.443 608.703C116.609 611.829 108.725 614.798 101.779 619.068C87.5159 627.348 88.6914 640.293 103.6 647.718C109.09 650.464 115.419 651.909 121.519 651.111C142.419 647.726 161.363 639.064 174.466 623.639C179.949 616.66 179.906 607.624 177.232 599.452C172.573 587.362 172.158 573.798 179.218 562.585C183.604 555.872 188.45 549.137 191.682 542.078C194.786 535.71 197.187 529.119 199.115 522.405C200.534 517.036 203.573 512.263 207.816 508.662C213.773 503.228 221.621 500.892 229.849 501.697C238.099 502.596 246.937 506.024 250.263 513.981C253.452 521.715 247.639 527.703 242.701 533.036C227.678 546.693 219.829 563.937 216.575 582.949C215.414 589.238 214.418 595.549 212.568 601.695C210.547 607.186 211.078 613.166 213.708 618.32C218.374 627.887 229.276 632.595 242.271 630.956C251.546 629.562 260.326 626.816 269.701 626.514C274.582 626.406 279.886 626.478 284.61 628.225C287.039 629.274 289.433 630.913 291.576 632.473C298.937 638.015 301.733 645.454 300.263 653.965C298.808 664.006 290.444 671.029 280.388 672.703C270.224 674.479 259.867 672.25 250.585 668.448C240.357 664.035 230.652 658.342 219.607 656.013L219.471 655.977L219.456 655.97Z" fill="#20193F" fill-opacity="0.1"/>
<path d="M1256 756.162C1236.76 754.774 1216.26 747.019 1209.63 728.661C1203.33 713.25 1192.32 699.6 1183 685.785C1178.27 678.54 1173.54 670.784 1172.86 661.943C1172.33 656.452 1170.93 650.802 1172.86 645.426C1175.87 637.037 1183.79 629.842 1193.34 628.85C1207.4 627.513 1218.33 638.425 1217.78 652.017C1216.97 675.658 1225.36 691.514 1246.25 704.387C1251.85 707.823 1257.97 710.555 1264.34 712.977C1272.92 715.73 1282.75 721.681 1285.3 730.422C1286.76 734.95 1285.53 739.615 1282.82 743.698C1277.19 752.057 1266.41 756.255 1256.14 756.176H1255.99L1256 756.162Z" fill="#20193F" fill-opacity="0.1"/>
<path d="M196.463 690.644C206.727 690.501 215.701 695.453 225.334 697.969C241.74 702.461 258.52 705.092 275.112 708.621C283.04 710.339 291.06 712.697 297.138 718.26C314.448 733.585 304.829 754.976 279.635 753.164C265.465 751.799 253.337 744.179 239.999 740.154C229.118 736.776 218.367 735.116 206.598 735.913C194.298 737.135 181.454 735.202 170.989 728.647C165.42 725.254 164.144 719.123 164.818 713.006C165.814 700.197 184.421 689.811 196.327 690.644H196.463Z" fill="#20193F" fill-opacity="0.1"/>
<path d="M0.516049 384.959C0.516049 379.863 0.60206 374.745 0.523217 369.635C0.523217 368.355 0.422871 366.932 0.745411 365.71C1.55535 362.598 6.35761 365.574 8.35019 365.947C13.0736 367.485 18.0264 368.262 22.8143 369.57C39.7728 374.328 56.8459 393.175 41.1561 406.889C34.8415 412.266 25.8892 414.185 17.5318 412.251C13.7474 411.36 10.4216 409.858 6.88801 408.823C1.59835 407.378 0.100331 406.027 0.508882 400.356C0.637898 395.274 0.508882 390.178 0.508882 385.103V384.959H0.516049Z" fill="#20193F" fill-opacity="0.1"/>
<path d="M1.18264 606.554C0.551897 605.993 0.480222 604.814 0.487389 603.908C0.487389 590.532 0.494557 577.148 0.501725 563.779C0.494557 562.88 0.5734 561.292 1.60553 561.392C2.19327 561.421 3.03187 561.996 3.80597 562.657C6.00641 564.562 7.69079 566.869 9.84106 568.832C17.0373 575.315 27.5378 583.143 24.4055 594.083C21.0225 602.169 12.7439 606.058 3.93499 607.071C3.03904 607.165 1.8994 607.172 1.26149 606.625L1.18264 606.561V606.554Z" fill="#20193F" fill-opacity="0.1"/>
<path d="M1133.57 286.744C1106 286.141 1080.49 282.554 1054.64 278.514C1040.6 275.955 1028.5 268.581 1017.3 260.609C1011.67 256.807 1005.65 253.774 1000.44 249.281C995.151 244.81 990.299 238.535 988.744 231.973C986.45 223.362 989.697 216.253 992.722 208.303C995.488 200.152 996.327 191.354 995.374 182.88C994.757 177.209 993.403 171.609 991.561 166.211C988.342 156.781 982.006 145.927 989.833 137.136C996.477 129.1 1009.21 128.195 1018.93 130.042C1030.57 131.688 1041.93 135.002 1053.72 135.361C1060.99 135.196 1068.27 132.939 1074.78 129.539C1084.85 123.918 1088.77 115.292 1094.61 106.847C1098.3 101.053 1103.17 95.7199 1109.52 92.816C1120.2 87.3892 1133.54 88.8771 1139.03 100.579C1141.79 106.674 1140.06 113.927 1136.4 119.332C1128.78 130.782 1113.02 143.354 1120.56 158.463C1124.96 167.203 1135.52 171.696 1144.88 172.745C1154.74 173.802 1164.71 173.406 1174.57 174.592C1180.28 175.174 1186.16 176.023 1191.36 178.632C1200.87 183.167 1209.13 193.654 1207.63 204.328C1206.18 213.306 1200.85 221.083 1194.93 227.833C1183.64 240.735 1175.47 254.794 1166.81 268.818C1159.42 279.65 1147.35 288.347 1133.72 286.773H1133.58L1133.57 286.744ZM1096.21 248.311C1102.56 248.311 1108.82 248.311 1115.15 248.332C1135.25 248.332 1161.83 235.251 1160.76 213.177C1160.58 207.11 1156.56 201.892 1150.74 199.786C1146.49 198.247 1141.69 198.456 1137.26 198.909C1129.75 199.728 1123.34 202.718 1117.85 207.52C1112.2 212.106 1105.07 215.125 1097.78 216.512C1087.1 219.193 1071.4 212.896 1075.13 200.016C1076.67 194.38 1080.93 190.255 1084.34 185.582C1087.8 181.155 1090.77 174.42 1089.86 170.085C1089.27 163.796 1081.64 159.059 1075.09 157.255C1064.11 153.23 1053.29 156.788 1044.39 162.869C1035.38 168.231 1032.04 176.907 1031.74 187.063C1031.4 193.769 1032.17 200.526 1032.14 207.254C1032.06 212.393 1031.06 217.719 1033.68 222.456C1040.8 237.515 1058.12 245.939 1074.68 247.916C1081.88 248.692 1089.42 248.153 1096.06 248.325H1096.2L1096.21 248.311Z" fill="#20193F" fill-opacity="0.1"/>
<path d="M1092.42 665.889C1091.04 642.766 1101.7 612.757 1130 615.323C1137.5 616.343 1143.94 622.036 1144.95 629.526C1146.4 638.245 1141.41 645.303 1137.05 652.47C1127.71 668.549 1129.92 684.039 1141.78 698.975C1149.28 708.542 1159.37 715.637 1167.4 724.794C1175.88 734.246 1180.34 745.804 1166.64 753.409C1147.73 763.27 1119.15 754.818 1111.38 735.518C1110.69 733.635 1110.31 731.529 1109.9 729.495C1107.67 718.325 1103.05 707.608 1098.86 696.768C1094.85 686.569 1091.64 676.024 1092.41 666.019V665.882L1092.42 665.889Z" fill="#20193F" fill-opacity="0.1"/>
<path d="M938.664 547.117C933.733 552.379 926.285 555.822 919.161 556.275C912.015 556.785 904.016 555.225 899.393 549.108C896.476 545.694 894.677 541.705 892.992 537.608C888.19 525.899 880.306 515.62 869.067 507.052C863.512 503.128 859.097 497.428 860.709 490.549C862.014 485.438 865.727 481.895 870.594 479.149C877.381 475.375 886.09 474.448 893.587 476.906C903.285 479.717 910.847 484.425 917.097 490.808C926.529 500.978 935.596 511.48 940.026 524.504C942.527 531.929 943.652 540.382 938.764 547.009L938.671 547.117H938.664Z" fill="#20193F" fill-opacity="0.1"/>
</g>
<defs>
<clipPath id="clip0_23_303">
<rect width="1374" height="777" fill="white" transform="translate(0 -9)"/>
</clipPath>
</defs>
</svg>
