<svg width="533" height="140" viewBox="0 0 533 140" fill="none" xmlns="http://www.w3.org/2000/svg">
<path d="M319.655 84.199C320.605 80.829 321.105 77.2791 321.105 73.6091C321.065 52.8694 304.385 35.6396 283.656 34.9596C261.246 34.2296 242.926 52.5394 243.646 74.9491C244.316 95.8188 261.756 112.559 282.626 112.419C290.006 112.369 296.885 110.259 302.735 106.639C305.685 110.529 310.545 112.899 315.925 112.339C322.745 111.639 328.255 106.099 328.915 99.2688C329.575 92.4489 325.535 86.4689 319.665 84.189L319.655 84.199ZM283.906 85.429C276.156 86.409 269.636 79.889 270.616 72.1391C271.286 66.8592 275.546 62.5993 280.826 61.9293C288.576 60.9493 295.095 67.4692 294.115 75.2191C293.445 80.499 289.186 84.759 283.906 85.429Z" fill="white"/>
<path d="M376.554 34.9596C355.925 34.2996 338.755 49.7795 336.745 69.7392C336.615 71.0392 336.545 72.3492 336.545 73.6792V126.648C336.545 133.788 342.335 139.568 349.465 139.568C356.605 139.568 362.385 133.778 362.385 126.648V110.229C366.415 111.649 370.754 112.429 375.274 112.429C397.184 112.429 414.834 94.2489 413.984 72.1592C413.204 51.9894 396.714 35.6096 376.534 34.9696L376.554 34.9596ZM376.834 85.429C369.084 86.409 362.565 79.8891 363.545 72.1392C364.215 66.8592 368.474 62.5993 373.754 61.9293C381.504 60.9493 388.024 67.4692 387.044 75.2191C386.374 80.4991 382.114 84.759 376.834 85.429Z" fill="white"/>
<path d="M461.613 34.9596C440.984 34.2996 423.814 49.7795 421.804 69.7392C421.674 71.0392 421.604 72.3492 421.604 73.6792V126.648C421.604 133.788 427.394 139.568 434.524 139.568C441.664 139.568 447.443 133.778 447.443 126.648V110.229C451.473 111.649 455.813 112.429 460.333 112.429C482.243 112.429 499.893 94.2489 499.043 72.1592C498.263 51.9894 481.773 35.6096 461.593 34.9696L461.613 34.9596ZM461.883 85.429C454.133 86.409 447.613 79.8891 448.593 72.1392C449.263 66.8592 453.523 62.5993 458.803 61.9293C466.553 60.9493 473.073 67.4692 472.093 75.2191C471.423 80.4991 467.163 84.759 461.883 85.429Z" fill="white"/>
<path d="M221.866 34.9396C214.036 34.9396 207.687 41.2896 207.687 49.1195V66.2592C207.687 76.8791 196.547 84.899 185.307 79.269C180.777 76.9991 177.957 72.2992 177.957 67.2292V56.6694L177.977 51.1394C178.007 44.6395 172.747 39.3596 166.247 39.3496H166.007C159.517 39.3496 154.247 44.5995 154.247 51.0894C154.247 52.9494 154.247 54.8094 154.247 56.6694V67.2292C154.247 72.2992 151.437 76.9991 146.897 79.269C135.667 84.899 124.518 76.8891 124.518 66.2592V46.5095C124.518 40.1195 119.338 34.9396 112.948 34.9396H107.728C101.338 34.9396 96.1579 40.1195 96.1579 46.5095V70.2292C96.1579 92.6589 114.348 110.849 136.777 110.849H140.427C143.587 110.779 155.377 110.209 166.097 102.099C176.817 110.199 188.607 110.779 191.767 110.849H195.417C217.846 110.849 236.036 92.6589 236.036 70.2292V49.1195C236.036 41.2896 229.686 34.9396 221.856 34.9396H221.866Z" fill="white"/>
<path d="M517.703 112.429C525.882 112.429 532.512 105.919 532.512 97.8888C532.512 89.8587 525.882 83.349 517.703 83.349C509.523 83.349 502.893 89.8587 502.893 97.8888C502.893 105.919 509.523 112.429 517.703 112.429Z" fill="white"/>
<path d="M33.1687 30.2197L33.3486 30.1296C33.6286 29.9896 33.9786 29.8397 34.3986 29.7197C34.3986 29.7197 34.9587 29.5497 35.5687 29.4697C36.4286 29.3597 43.6584 29.3497 53.5783 29.4697H68.3582C75.9981 29.4697 82.608 23.7597 83.278 16.1498C84.048 7.45993 77.2181 0.170042 68.6882 0.170042H53.0584C49.3185 0.160042 43.1585 0.119998 33.2486 0C32.9386 0 32.7786 0 32.6086 0C22.3787 0.0199997 8.419 8.36992 2.68907 22.2097C-1.38088 32.0396 0.219096 40.9295 0.809088 43.6095C4.52904 60.5493 19.5788 72.1391 37.4286 71.8391C39.2586 71.9091 41.1085 71.9491 42.9685 71.9991C45.7784 72.0691 48.6784 72.1391 51.4584 72.2891C53.8883 72.4791 55.7283 73.1191 56.9683 74.2391C58.3383 75.4391 59.0383 77.2591 58.8783 79.229C58.7183 81.209 57.7283 82.909 56.1083 83.909C54.9583 84.649 53.5484 85.0489 51.9284 85.1389C46.1185 85.1189 42.5585 85.099 36.7486 85.089H21.0787C13.4388 85.089 6.82899 90.7989 6.159 98.4088C5.38901 107.099 12.2189 114.389 20.7488 114.389C33.3386 114.929 38.5585 114.929 48.2384 114.679C50.6584 114.619 51.2184 114.579 51.8384 114.529C55.5783 114.219 74.3781 112.159 83.7079 96.8888C89.0979 88.0689 88.6379 79.119 88.6079 77.449C88.2779 60.6492 74.9981 45.6395 58.4183 43.2795C54.6984 42.6995 50.7884 42.6195 47.0085 42.5495C45.3885 42.5195 43.8486 42.4895 42.3186 42.4195C41.6986 42.3995 41.0785 42.3795 40.4585 42.3695C38.4885 42.3195 36.6385 42.2795 35.0786 41.9195L34.9786 41.8995C32.5586 41.4095 30.6087 39.7595 30.0087 37.6696L29.9786 37.5695C29.0787 34.7396 30.5187 31.4597 33.1887 30.2397L33.1687 30.2197Z" fill="white"/>
</svg>
